<?xml version="1.0" encoding="UTF-8" standalone="no"?><svg xmlns="http://www.w3.org/2000/svg" xmlns:xlink="http://www.w3.org/1999/xlink" contentScriptType="application/ecmascript" contentStyleType="text/css" height="820px" preserveAspectRatio="none" style="width:1944px;height:820px;" version="1.1" viewBox="0 0 1944 820" width="1944px" zoomAndPan="magnify"><defs><filter height="300%" id="fxybee0e6nzm8" width="300%" x="-1" y="-1"><feGaussianBlur result="blurOut" stdDeviation="2.0"/><feColorMatrix in="blurOut" result="blurOut2" type="matrix" values="0 0 0 0 0 0 0 0 0 0 0 0 0 0 0 0 0 0 .4 0"/><feOffset dx="4.0" dy="4.0" in="blurOut2" result="blurOut3"/><feBlend in="SourceGraphic" in2="blurOut3" mode="normal"/></filter></defs><g><text fill="#000000" font-family="sans-serif" font-size="18" lengthAdjust="spacingAndGlyphs" textLength="316" x="817.5" y="18.6855">Groundbased Dictionary Class Diagram</text><!--class Groundbased_Parameters--><rect fill="#FEFECE" filter="url(#fxybee0e6nzm8)" height="61.8359" id="Groundbased_Parameters" style="stroke: #A80036; stroke-width: 1.5;" width="180" x="826" y="173.6406"/><ellipse cx="841" cy="189.6406" fill="#ADD1B2" rx="11" ry="11" style="stroke: #A80036; stroke-width: 1.0;"/><path d="M843.7656,185.5156 Q843.9219,185.2969 844.1094,185.1875 Q844.2969,185.0781 844.5156,185.0781 Q844.8906,185.0781 845.125,185.3359 Q845.3594,185.5938 845.3594,186.2031 L845.3594,187.6563 Q845.3594,188.2656 845.125,188.5313 Q844.8906,188.7969 844.5156,188.7969 Q844.1719,188.7969 843.9688,188.5938 Q843.7656,188.4063 843.6563,187.8906 Q843.6094,187.5313 843.4219,187.3438 Q843.0938,186.9688 842.4844,186.75 Q841.875,186.5313 841.25,186.5313 Q840.4844,186.5313 839.8516,186.8594 Q839.2188,187.1875 838.7266,187.9375 Q838.2344,188.6875 838.2344,189.7188 L838.2344,190.8125 Q838.2344,192.0469 839.125,192.8672 Q840.0156,193.6875 841.6094,193.6875 Q842.5469,193.6875 843.2031,193.4375 Q843.5938,193.2813 844.0156,192.8438 Q844.2813,192.5781 844.4297,192.5 Q844.5781,192.4219 844.7813,192.4219 Q845.1094,192.4219 845.3672,192.6797 Q845.625,192.9375 845.625,193.2813 Q845.625,193.625 845.2813,194.0313 Q844.7813,194.6094 843.9844,194.9375 Q842.9063,195.3906 841.6094,195.3906 Q840.0938,195.3906 838.8906,194.7656 Q837.9063,194.2656 837.2188,193.1953 Q836.5313,192.125 836.5313,190.8438 L836.5313,189.6875 Q836.5313,188.3594 837.1484,187.2109 Q837.7656,186.0625 838.8594,185.4453 Q839.9531,184.8281 841.1875,184.8281 Q841.9219,184.8281 842.5703,184.9922 Q843.2188,185.1563 843.7656,185.5156 Z "/><text fill="#000000" font-family="sans-serif" font-size="12" lengthAdjust="spacingAndGlyphs" textLength="148" x="855" y="194.5508">Groundbased_Parameters</text><line style="stroke: #A80036; stroke-width: 1.5;" x1="827" x2="1005" y1="205.6406" y2="205.6406"/><text fill="#000000" font-family="sans-serif" font-size="11" lengthAdjust="spacingAndGlyphs" textLength="146" x="832" y="221.0596">apparentVisualMagnitude: real</text><line style="stroke: #A80036; stroke-width: 1.5;" x1="827" x2="1005" y1="227.4766" y2="227.4766"/><path d="M666.5,30.6406 L666.5,114.0469 A0,0 0 0 0 666.5,114.0469 L912,114.0469 L916,173.4576 L920,114.0469 L1165.5,114.0469 A0,0 0 0 0 1165.5,114.0469 L1165.5,40.6406 L1155.5,30.6406 L666.5,30.6406 A0,0 0 0 0 666.5,30.6406 " fill="#FBFB77" filter="url(#fxybee0e6nzm8)" style="stroke: #A80036; stroke-width: 1.0;"/><path d="M1155.5,30.6406 L1155.5,40.6406 L1165.5,40.6406 L1155.5,30.6406 " fill="#FBFB77" style="stroke: #A80036; stroke-width: 1.0;"/><text fill="#000000" font-family="sans-serif" font-size="13" lengthAdjust="spacingAndGlyphs" textLength="478" x="672.5" y="49.1357">This class is intended to provide additional metadata for groundbased observations.</text><text fill="#000000" font-family="sans-serif" font-size="13" lengthAdjust="spacingAndGlyphs" textLength="458" x="672.5" y="65.4873">Much of the information is geometry information, but in a ground-based context.</text><line style="stroke: #A80036; stroke-width: 1.0; stroke-dasharray: 1.0,2.0;" x1="667.5" x2="1164.5" y1="68.3438" y2="68.3438"/><text fill="#000000" font-family="sans-serif" font-size="13" lengthAdjust="spacingAndGlyphs" textLength="304" x="672.5" y="85.8389">Typically, this would go into the geometry dictionary,</text><text fill="#000000" font-family="sans-serif" font-size="13" lengthAdjust="spacingAndGlyphs" textLength="391" x="672.5" y="102.1904">but the geometry dictionary is currently focused solely on missions.</text><!--class Image_Orientation--><rect fill="#FEFECE" filter="url(#fxybee0e6nzm8)" height="89.5078" id="Image_Orientation" style="stroke: #A80036; stroke-width: 1.5;" width="134" x="291" y="295.6406"/><ellipse cx="306" cy="311.6406" fill="#ADD1B2" rx="11" ry="11" style="stroke: #A80036; stroke-width: 1.0;"/><path d="M308.7656,307.5156 Q308.9219,307.2969 309.1094,307.1875 Q309.2969,307.0781 309.5156,307.0781 Q309.8906,307.0781 310.125,307.3359 Q310.3594,307.5938 310.3594,308.2031 L310.3594,309.6563 Q310.3594,310.2656 310.125,310.5313 Q309.8906,310.7969 309.5156,310.7969 Q309.1719,310.7969 308.9688,310.5938 Q308.7656,310.4063 308.6563,309.8906 Q308.6094,309.5313 308.4219,309.3438 Q308.0938,308.9688 307.4844,308.75 Q306.875,308.5313 306.25,308.5313 Q305.4844,308.5313 304.8516,308.8594 Q304.2188,309.1875 303.7266,309.9375 Q303.2344,310.6875 303.2344,311.7188 L303.2344,312.8125 Q303.2344,314.0469 304.125,314.8672 Q305.0156,315.6875 306.6094,315.6875 Q307.5469,315.6875 308.2031,315.4375 Q308.5938,315.2813 309.0156,314.8438 Q309.2813,314.5781 309.4297,314.5 Q309.5781,314.4219 309.7813,314.4219 Q310.1094,314.4219 310.3672,314.6797 Q310.625,314.9375 310.625,315.2813 Q310.625,315.625 310.2813,316.0313 Q309.7813,316.6094 308.9844,316.9375 Q307.9063,317.3906 306.6094,317.3906 Q305.0938,317.3906 303.8906,316.7656 Q302.9063,316.2656 302.2188,315.1953 Q301.5313,314.125 301.5313,312.8438 L301.5313,311.6875 Q301.5313,310.3594 302.1484,309.2109 Q302.7656,308.0625 303.8594,307.4453 Q304.9531,306.8281 306.1875,306.8281 Q306.9219,306.8281 307.5703,306.9922 Q308.2188,307.1563 308.7656,307.5156 Z "/><text fill="#000000" font-family="sans-serif" font-size="12" lengthAdjust="spacingAndGlyphs" textLength="102" x="320" y="316.5508">Image_Orientation</text><line style="stroke: #A80036; stroke-width: 1.5;" x1="292" x2="424" y1="327.6406" y2="327.6406"/><text fill="#000000" font-family="sans-serif" font-size="11" lengthAdjust="spacingAndGlyphs" textLength="103" x="297" y="343.0596">northClockAngle: real</text><text fill="#000000" font-family="sans-serif" font-size="11" lengthAdjust="spacingAndGlyphs" textLength="99" x="297" y="356.8955">eastClockAngle: real</text><text fill="#000000" font-family="sans-serif" font-size="11" lengthAdjust="spacingAndGlyphs" textLength="100" x="297" y="370.7314">clockDirection: string</text><line style="stroke: #A80036; stroke-width: 1.5;" x1="292" x2="424" y1="377.1484" y2="377.1484"/><path d="M6,175.1406 L6,234.1953 A0,0 0 0 0 6,234.1953 L224.397,234.1953 L303.502,295.3816 L232.397,234.1953 L380,234.1953 A0,0 0 0 0 380,234.1953 L380,185.1406 L370,175.1406 L6,175.1406 A0,0 0 0 0 6,175.1406 " fill="#FBFB77" filter="url(#fxybee0e6nzm8)" style="stroke: #A80036; stroke-width: 1.0;"/><path d="M370,175.1406 L370,185.1406 L380,185.1406 L370,175.1406 " fill="#FBFB77" style="stroke: #A80036; stroke-width: 1.0;"/><text fill="#000000" font-family="sans-serif" font-size="13" lengthAdjust="spacingAndGlyphs" textLength="311" x="12" y="193.6357">This is intended to deal with potential East-West flips,</text><text fill="#000000" font-family="sans-serif" font-size="13" lengthAdjust="spacingAndGlyphs" textLength="353" x="12" y="209.9873">and to make unambiguous the direction that clock angles are</text><text fill="#000000" font-family="sans-serif" font-size="13" lengthAdjust="spacingAndGlyphs" textLength="75" x="12" y="226.3389">measured in.</text><!--class Instrument_Parameters--><rect fill="#FEFECE" filter="url(#fxybee0e6nzm8)" height="61.8359" id="Instrument_Parameters" style="stroke: #A80036; stroke-width: 1.5;" width="163" x="573.5" y="309.6406"/><ellipse cx="588.5" cy="325.6406" fill="#ADD1B2" rx="11" ry="11" style="stroke: #A80036; stroke-width: 1.0;"/><path d="M591.2656,321.5156 Q591.4219,321.2969 591.6094,321.1875 Q591.7969,321.0781 592.0156,321.0781 Q592.3906,321.0781 592.625,321.3359 Q592.8594,321.5938 592.8594,322.2031 L592.8594,323.6563 Q592.8594,324.2656 592.625,324.5313 Q592.3906,324.7969 592.0156,324.7969 Q591.6719,324.7969 591.4688,324.5938 Q591.2656,324.4063 591.1563,323.8906 Q591.1094,323.5313 590.9219,323.3438 Q590.5938,322.9688 589.9844,322.75 Q589.375,322.5313 588.75,322.5313 Q587.9844,322.5313 587.3516,322.8594 Q586.7188,323.1875 586.2266,323.9375 Q585.7344,324.6875 585.7344,325.7188 L585.7344,326.8125 Q585.7344,328.0469 586.625,328.8672 Q587.5156,329.6875 589.1094,329.6875 Q590.0469,329.6875 590.7031,329.4375 Q591.0938,329.2813 591.5156,328.8438 Q591.7813,328.5781 591.9297,328.5 Q592.0781,328.4219 592.2813,328.4219 Q592.6094,328.4219 592.8672,328.6797 Q593.125,328.9375 593.125,329.2813 Q593.125,329.625 592.7813,330.0313 Q592.2813,330.6094 591.4844,330.9375 Q590.4063,331.3906 589.1094,331.3906 Q587.5938,331.3906 586.3906,330.7656 Q585.4063,330.2656 584.7188,329.1953 Q584.0313,328.125 584.0313,326.8438 L584.0313,325.6875 Q584.0313,324.3594 584.6484,323.2109 Q585.2656,322.0625 586.3594,321.4453 Q587.4531,320.8281 588.6875,320.8281 Q589.4219,320.8281 590.0703,320.9922 Q590.7188,321.1563 591.2656,321.5156 Z "/><text fill="#000000" font-family="sans-serif" font-size="12" lengthAdjust="spacingAndGlyphs" textLength="131" x="602.5" y="330.5508">Instrument_Parameters</text><line style="stroke: #A80036; stroke-width: 1.5;" x1="574.5" x2="735.5" y1="341.6406" y2="341.6406"/><text fill="#000000" font-family="sans-serif" font-size="11" lengthAdjust="spacingAndGlyphs" textLength="135" x="579.5" y="357.0596">instrumentTemperature: real</text><line style="stroke: #A80036; stroke-width: 1.5;" x1="574.5" x2="735.5" y1="363.4766" y2="363.4766"/><path d="M415.5,183.1406 L415.5,225.8438 A0,0 0 0 0 415.5,225.8438 L607.011,225.8438 L643.31,309.5156 L615.011,225.8438 L790.5,225.8438 A0,0 0 0 0 790.5,225.8438 L790.5,193.1406 L780.5,183.1406 L415.5,183.1406 A0,0 0 0 0 415.5,183.1406 " fill="#FBFB77" filter="url(#fxybee0e6nzm8)" style="stroke: #A80036; stroke-width: 1.0;"/><path d="M780.5,183.1406 L780.5,193.1406 L790.5,193.1406 L780.5,183.1406 " fill="#FBFB77" style="stroke: #A80036; stroke-width: 1.0;"/><text fill="#000000" font-family="sans-serif" font-size="13" lengthAdjust="spacingAndGlyphs" textLength="354" x="421.5" y="201.6357">measures instrument temperatures, along with other potential</text><text fill="#000000" font-family="sans-serif" font-size="13" lengthAdjust="spacingAndGlyphs" textLength="315" x="421.5" y="217.9873">instrument parameters that may affect the observation.</text><!--class Quality--><rect fill="#FEFECE" filter="url(#fxybee0e6nzm8)" height="75.6719" id="Quality" style="stroke: #A80036; stroke-width: 1.5;" width="112" x="824" y="302.6406"/><ellipse cx="858.35" cy="318.6406" fill="#ADD1B2" rx="11" ry="11" style="stroke: #A80036; stroke-width: 1.0;"/><path d="M861.1156,314.5156 Q861.2719,314.2969 861.4594,314.1875 Q861.6469,314.0781 861.8656,314.0781 Q862.2406,314.0781 862.475,314.3359 Q862.7094,314.5938 862.7094,315.2031 L862.7094,316.6563 Q862.7094,317.2656 862.475,317.5313 Q862.2406,317.7969 861.8656,317.7969 Q861.5219,317.7969 861.3188,317.5938 Q861.1156,317.4063 861.0063,316.8906 Q860.9594,316.5313 860.7719,316.3438 Q860.4438,315.9688 859.8344,315.75 Q859.225,315.5313 858.6,315.5313 Q857.8344,315.5313 857.2016,315.8594 Q856.5688,316.1875 856.0766,316.9375 Q855.5844,317.6875 855.5844,318.7188 L855.5844,319.8125 Q855.5844,321.0469 856.475,321.8672 Q857.3656,322.6875 858.9594,322.6875 Q859.8969,322.6875 860.5531,322.4375 Q860.9438,322.2813 861.3656,321.8438 Q861.6313,321.5781 861.7797,321.5 Q861.9281,321.4219 862.1313,321.4219 Q862.4594,321.4219 862.7172,321.6797 Q862.975,321.9375 862.975,322.2813 Q862.975,322.625 862.6313,323.0313 Q862.1313,323.6094 861.3344,323.9375 Q860.2563,324.3906 858.9594,324.3906 Q857.4438,324.3906 856.2406,323.7656 Q855.2563,323.2656 854.5688,322.1953 Q853.8813,321.125 853.8813,319.8438 L853.8813,318.6875 Q853.8813,317.3594 854.4984,316.2109 Q855.1156,315.0625 856.2094,314.4453 Q857.3031,313.8281 858.5375,313.8281 Q859.2719,313.8281 859.9203,313.9922 Q860.5688,314.1563 861.1156,314.5156 Z "/><text fill="#000000" font-family="sans-serif" font-size="12" lengthAdjust="spacingAndGlyphs" textLength="37" x="876.65" y="323.5508">Quality</text><line style="stroke: #A80036; stroke-width: 1.5;" x1="825" x2="935" y1="334.6406" y2="334.6406"/><text fill="#000000" font-family="sans-serif" font-size="11" lengthAdjust="spacingAndGlyphs" textLength="100" x="830" y="350.0596">photometric: boolean</text><text fill="#000000" font-family="sans-serif" font-size="11" lengthAdjust="spacingAndGlyphs" textLength="60" x="830" y="363.8955">notes: string</text><line style="stroke: #A80036; stroke-width: 1.5;" x1="825" x2="935" y1="370.3125" y2="370.3125"/><!--class Airmass--><rect fill="#FEFECE" filter="url(#fxybee0e6nzm8)" height="103.3438" id="Airmass" style="stroke: #A80036; stroke-width: 1.5;" width="126" x="665" y="480.6406"/><ellipse cx="701.6" cy="496.6406" fill="#ADD1B2" rx="11" ry="11" style="stroke: #A80036; stroke-width: 1.0;"/><path d="M704.3656,492.5156 Q704.5219,492.2969 704.7094,492.1875 Q704.8969,492.0781 705.1156,492.0781 Q705.4906,492.0781 705.725,492.3359 Q705.9594,492.5938 705.9594,493.2031 L705.9594,494.6563 Q705.9594,495.2656 705.725,495.5313 Q705.4906,495.7969 705.1156,495.7969 Q704.7719,495.7969 704.5688,495.5938 Q704.3656,495.4063 704.2563,494.8906 Q704.2094,494.5313 704.0219,494.3438 Q703.6938,493.9688 703.0844,493.75 Q702.475,493.5313 701.85,493.5313 Q701.0844,493.5313 700.4516,493.8594 Q699.8188,494.1875 699.3266,494.9375 Q698.8344,495.6875 698.8344,496.7188 L698.8344,497.8125 Q698.8344,499.0469 699.725,499.8672 Q700.6156,500.6875 702.2094,500.6875 Q703.1469,500.6875 703.8031,500.4375 Q704.1938,500.2813 704.6156,499.8438 Q704.8813,499.5781 705.0297,499.5 Q705.1781,499.4219 705.3813,499.4219 Q705.7094,499.4219 705.9672,499.6797 Q706.225,499.9375 706.225,500.2813 Q706.225,500.625 705.8813,501.0313 Q705.3813,501.6094 704.5844,501.9375 Q703.5063,502.3906 702.2094,502.3906 Q700.6938,502.3906 699.4906,501.7656 Q698.5063,501.2656 697.8188,500.1953 Q697.1313,499.125 697.1313,497.8438 L697.1313,496.6875 Q697.1313,495.3594 697.7484,494.2109 Q698.3656,493.0625 699.4594,492.4453 Q700.5531,491.8281 701.7875,491.8281 Q702.5219,491.8281 703.1703,491.9922 Q703.8188,492.1563 704.3656,492.5156 Z "/><text fill="#000000" font-family="sans-serif" font-size="12" lengthAdjust="spacingAndGlyphs" textLength="46" x="720.4" y="501.5508">Airmass</text><line style="stroke: #A80036; stroke-width: 1.5;" x1="666" x2="790" y1="512.6406" y2="512.6406"/><text fill="#000000" font-family="sans-serif" font-size="11" lengthAdjust="spacingAndGlyphs" textLength="62" x="671" y="528.0596">airmass: real</text><text fill="#000000" font-family="sans-serif" font-size="11" lengthAdjust="spacingAndGlyphs" textLength="114" x="671" y="541.8955">measurementTime: date</text><text fill="#000000" font-family="sans-serif" font-size="11" lengthAdjust="spacingAndGlyphs" textLength="111" x="671" y="555.7314">measurementX: integer</text><text fill="#000000" font-family="sans-serif" font-size="11" lengthAdjust="spacingAndGlyphs" textLength="112" x="671" y="569.5674">measurementY: integer</text><line style="stroke: #A80036; stroke-width: 1.5;" x1="666" x2="790" y1="575.9844" y2="575.9844"/><!--class Seeing--><rect fill="#FEFECE" filter="url(#fxybee0e6nzm8)" height="61.8359" id="Seeing" style="stroke: #A80036; stroke-width: 1.5;" width="71" x="826.5" y="501.1406"/><ellipse cx="841.5" cy="517.1406" fill="#ADD1B2" rx="11" ry="11" style="stroke: #A80036; stroke-width: 1.0;"/><path d="M844.2656,513.0156 Q844.4219,512.7969 844.6094,512.6875 Q844.7969,512.5781 845.0156,512.5781 Q845.3906,512.5781 845.625,512.8359 Q845.8594,513.0938 845.8594,513.7031 L845.8594,515.1563 Q845.8594,515.7656 845.625,516.0313 Q845.3906,516.2969 845.0156,516.2969 Q844.6719,516.2969 844.4688,516.0938 Q844.2656,515.9063 844.1563,515.3906 Q844.1094,515.0313 843.9219,514.8438 Q843.5938,514.4688 842.9844,514.25 Q842.375,514.0313 841.75,514.0313 Q840.9844,514.0313 840.3516,514.3594 Q839.7188,514.6875 839.2266,515.4375 Q838.7344,516.1875 838.7344,517.2188 L838.7344,518.3125 Q838.7344,519.5469 839.625,520.3672 Q840.5156,521.1875 842.1094,521.1875 Q843.0469,521.1875 843.7031,520.9375 Q844.0938,520.7813 844.5156,520.3438 Q844.7813,520.0781 844.9297,520 Q845.0781,519.9219 845.2813,519.9219 Q845.6094,519.9219 845.8672,520.1797 Q846.125,520.4375 846.125,520.7813 Q846.125,521.125 845.7813,521.5313 Q845.2813,522.1094 844.4844,522.4375 Q843.4063,522.8906 842.1094,522.8906 Q840.5938,522.8906 839.3906,522.2656 Q838.4063,521.7656 837.7188,520.6953 Q837.0313,519.625 837.0313,518.3438 L837.0313,517.1875 Q837.0313,515.8594 837.6484,514.7109 Q838.2656,513.5625 839.3594,512.9453 Q840.4531,512.3281 841.6875,512.3281 Q842.4219,512.3281 843.0703,512.4922 Q843.7188,512.6563 844.2656,513.0156 Z "/><text fill="#000000" font-family="sans-serif" font-size="12" lengthAdjust="spacingAndGlyphs" textLength="39" x="855.5" y="522.0508">Seeing</text><line style="stroke: #A80036; stroke-width: 1.5;" x1="827.5" x2="896.5" y1="533.1406" y2="533.1406"/><text fill="#000000" font-family="sans-serif" font-size="11" lengthAdjust="spacingAndGlyphs" textLength="52" x="832.5" y="548.5596">fwhm: real</text><line style="stroke: #A80036; stroke-width: 1.5;" x1="827.5" x2="896.5" y1="554.9766" y2="554.9766"/><!--class Weather--><rect fill="#FEFECE" filter="url(#fxybee0e6nzm8)" height="117.1797" id="Weather" style="stroke: #A80036; stroke-width: 1.5;" width="94" x="933" y="473.6406"/><ellipse cx="955.2" cy="489.6406" fill="#ADD1B2" rx="11" ry="11" style="stroke: #A80036; stroke-width: 1.0;"/><path d="M957.9656,485.5156 Q958.1219,485.2969 958.3094,485.1875 Q958.4969,485.0781 958.7156,485.0781 Q959.0906,485.0781 959.325,485.3359 Q959.5594,485.5938 959.5594,486.2031 L959.5594,487.6563 Q959.5594,488.2656 959.325,488.5313 Q959.0906,488.7969 958.7156,488.7969 Q958.3719,488.7969 958.1688,488.5938 Q957.9656,488.4063 957.8563,487.8906 Q957.8094,487.5313 957.6219,487.3438 Q957.2938,486.9688 956.6844,486.75 Q956.075,486.5313 955.45,486.5313 Q954.6844,486.5313 954.0516,486.8594 Q953.4188,487.1875 952.9266,487.9375 Q952.4344,488.6875 952.4344,489.7188 L952.4344,490.8125 Q952.4344,492.0469 953.325,492.8672 Q954.2156,493.6875 955.8094,493.6875 Q956.7469,493.6875 957.4031,493.4375 Q957.7938,493.2813 958.2156,492.8438 Q958.4813,492.5781 958.6297,492.5 Q958.7781,492.4219 958.9813,492.4219 Q959.3094,492.4219 959.5672,492.6797 Q959.825,492.9375 959.825,493.2813 Q959.825,493.625 959.4813,494.0313 Q958.9813,494.6094 958.1844,494.9375 Q957.1063,495.3906 955.8094,495.3906 Q954.2938,495.3906 953.0906,494.7656 Q952.1063,494.2656 951.4188,493.1953 Q950.7313,492.125 950.7313,490.8438 L950.7313,489.6875 Q950.7313,488.3594 951.3484,487.2109 Q951.9656,486.0625 953.0594,485.4453 Q954.1531,484.8281 955.3875,484.8281 Q956.1219,484.8281 956.7703,484.9922 Q957.4188,485.1563 957.9656,485.5156 Z "/><text fill="#000000" font-family="sans-serif" font-size="12" lengthAdjust="spacingAndGlyphs" textLength="46" x="970.8" y="494.5508">Weather</text><line style="stroke: #A80036; stroke-width: 1.5;" x1="934" x2="1026" y1="505.6406" y2="505.6406"/><text fill="#000000" font-family="sans-serif" font-size="11" lengthAdjust="spacingAndGlyphs" textLength="82" x="939" y="521.0596">temperature: real</text><text fill="#000000" font-family="sans-serif" font-size="11" lengthAdjust="spacingAndGlyphs" textLength="68" x="939" y="534.8955">pressure: real</text><text fill="#000000" font-family="sans-serif" font-size="11" lengthAdjust="spacingAndGlyphs" textLength="63" x="939" y="548.7314">humidity: real</text><text fill="#000000" font-family="sans-serif" font-size="11" lengthAdjust="spacingAndGlyphs" textLength="56" x="939" y="562.5674">clouds: real</text><text fill="#000000" font-family="sans-serif" font-size="11" lengthAdjust="spacingAndGlyphs" textLength="60" x="939" y="576.4033">notes: string</text><line style="stroke: #A80036; stroke-width: 1.5;" x1="934" x2="1026" y1="582.8203" y2="582.8203"/><!--class Geometry_Groundbased--><rect fill="#FEFECE" filter="url(#fxybee0e6nzm8)" height="48" id="Geometry_Groundbased" style="stroke: #A80036; stroke-width: 1.5;" width="168" x="1262" y="316.6406"/><ellipse cx="1277" cy="332.6406" fill="#ADD1B2" rx="11" ry="11" style="stroke: #A80036; stroke-width: 1.0;"/><path d="M1279.7656,328.5156 Q1279.9219,328.2969 1280.1094,328.1875 Q1280.2969,328.0781 1280.5156,328.0781 Q1280.8906,328.0781 1281.125,328.3359 Q1281.3594,328.5938 1281.3594,329.2031 L1281.3594,330.6563 Q1281.3594,331.2656 1281.125,331.5313 Q1280.8906,331.7969 1280.5156,331.7969 Q1280.1719,331.7969 1279.9688,331.5938 Q1279.7656,331.4063 1279.6563,330.8906 Q1279.6094,330.5313 1279.4219,330.3438 Q1279.0938,329.9688 1278.4844,329.75 Q1277.875,329.5313 1277.25,329.5313 Q1276.4844,329.5313 1275.8516,329.8594 Q1275.2188,330.1875 1274.7266,330.9375 Q1274.2344,331.6875 1274.2344,332.7188 L1274.2344,333.8125 Q1274.2344,335.0469 1275.125,335.8672 Q1276.0156,336.6875 1277.6094,336.6875 Q1278.5469,336.6875 1279.2031,336.4375 Q1279.5938,336.2813 1280.0156,335.8438 Q1280.2813,335.5781 1280.4297,335.5 Q1280.5781,335.4219 1280.7813,335.4219 Q1281.1094,335.4219 1281.3672,335.6797 Q1281.625,335.9375 1281.625,336.2813 Q1281.625,336.625 1281.2813,337.0313 Q1280.7813,337.6094 1279.9844,337.9375 Q1278.9063,338.3906 1277.6094,338.3906 Q1276.0938,338.3906 1274.8906,337.7656 Q1273.9063,337.2656 1273.2188,336.1953 Q1272.5313,335.125 1272.5313,333.8438 L1272.5313,332.6875 Q1272.5313,331.3594 1273.1484,330.2109 Q1273.7656,329.0625 1274.8594,328.4453 Q1275.9531,327.8281 1277.1875,327.8281 Q1277.9219,327.8281 1278.5703,327.9922 Q1279.2188,328.1563 1279.7656,328.5156 Z "/><text fill="#000000" font-family="sans-serif" font-size="12" lengthAdjust="spacingAndGlyphs" textLength="136" x="1291" y="337.5508">Geometry_Groundbased</text><line style="stroke: #A80036; stroke-width: 1.5;" x1="1263" x2="1429" y1="348.6406" y2="348.6406"/><line style="stroke: #A80036; stroke-width: 1.5;" x1="1263" x2="1429" y1="356.6406" y2="356.6406"/><path d="M1113.5,183.1406 L1113.5,225.8438 A0,0 0 0 0 1113.5,225.8438 L1342,225.8438 L1346,316.4976 L1350,225.8438 L1578.5,225.8438 A0,0 0 0 0 1578.5,225.8438 L1578.5,193.1406 L1568.5,183.1406 L1113.5,183.1406 A0,0 0 0 0 1113.5,183.1406 " fill="#FBFB77" filter="url(#fxybee0e6nzm8)" style="stroke: #A80036; stroke-width: 1.0;"/><path d="M1568.5,183.1406 L1568.5,193.1406 L1578.5,193.1406 L1568.5,183.1406 " fill="#FBFB77" style="stroke: #A80036; stroke-width: 1.0;"/><text fill="#000000" font-family="sans-serif" font-size="13" lengthAdjust="spacingAndGlyphs" textLength="327" x="1119.5" y="201.6357">We should not depend directly on the geometry classes.</text><text fill="#000000" font-family="sans-serif" font-size="13" lengthAdjust="spacingAndGlyphs" textLength="444" x="1119.5" y="217.9873">We will either have to clone the geometry classes or define our own versions.</text><!--class geom:Pixel_Dimensions--><rect fill="#FEFECE" filter="url(#fxybee0e6nzm8)" height="89.5078" id="geom:Pixel_Dimensions" style="stroke: #A80036; stroke-width: 1.5;" width="183" x="1062.5" y="487.1406"/><ellipse cx="1084.25" cy="503.1406" fill="#ADD1B2" rx="11" ry="11" style="stroke: #A80036; stroke-width: 1.0;"/><path d="M1087.0156,499.0156 Q1087.1719,498.7969 1087.3594,498.6875 Q1087.5469,498.5781 1087.7656,498.5781 Q1088.1406,498.5781 1088.375,498.8359 Q1088.6094,499.0938 1088.6094,499.7031 L1088.6094,501.1563 Q1088.6094,501.7656 1088.375,502.0313 Q1088.1406,502.2969 1087.7656,502.2969 Q1087.4219,502.2969 1087.2188,502.0938 Q1087.0156,501.9063 1086.9063,501.3906 Q1086.8594,501.0313 1086.6719,500.8438 Q1086.3438,500.4688 1085.7344,500.25 Q1085.125,500.0313 1084.5,500.0313 Q1083.7344,500.0313 1083.1016,500.3594 Q1082.4688,500.6875 1081.9766,501.4375 Q1081.4844,502.1875 1081.4844,503.2188 L1081.4844,504.3125 Q1081.4844,505.5469 1082.375,506.3672 Q1083.2656,507.1875 1084.8594,507.1875 Q1085.7969,507.1875 1086.4531,506.9375 Q1086.8438,506.7813 1087.2656,506.3438 Q1087.5313,506.0781 1087.6797,506 Q1087.8281,505.9219 1088.0313,505.9219 Q1088.3594,505.9219 1088.6172,506.1797 Q1088.875,506.4375 1088.875,506.7813 Q1088.875,507.125 1088.5313,507.5313 Q1088.0313,508.1094 1087.2344,508.4375 Q1086.1563,508.8906 1084.8594,508.8906 Q1083.3438,508.8906 1082.1406,508.2656 Q1081.1563,507.7656 1080.4688,506.6953 Q1079.7813,505.625 1079.7813,504.3438 L1079.7813,503.1875 Q1079.7813,501.8594 1080.3984,500.7109 Q1081.0156,499.5625 1082.1094,498.9453 Q1083.2031,498.3281 1084.4375,498.3281 Q1085.1719,498.3281 1085.8203,498.4922 Q1086.4688,498.6563 1087.0156,499.0156 Z "/><text fill="#000000" font-family="sans-serif" font-size="12" lengthAdjust="spacingAndGlyphs" textLength="136" x="1099.75" y="508.0508">geom:Pixel_Dimensions</text><line style="stroke: #A80036; stroke-width: 1.5;" x1="1063.5" x2="1244.5" y1="519.1406" y2="519.1406"/><text fill="#000000" font-family="sans-serif" font-size="11" lengthAdjust="spacingAndGlyphs" textLength="168" x="1068.5" y="534.5596">pixel_field_of_view_method: string</text><text fill="#000000" font-family="sans-serif" font-size="11" lengthAdjust="spacingAndGlyphs" textLength="171" x="1068.5" y="548.3955">horizontal_pixel_field_of_view: real</text><text fill="#000000" font-family="sans-serif" font-size="11" lengthAdjust="spacingAndGlyphs" textLength="159" x="1068.5" y="562.2314">vertical_pixel_field_of_view: real</text><line style="stroke: #A80036; stroke-width: 1.5;" x1="1063.5" x2="1244.5" y1="568.6484" y2="568.6484"/><!--class geom:Derived_Geometry--><rect fill="#FEFECE" filter="url(#fxybee0e6nzm8)" height="172.5234" id="geom:Derived_Geometry" style="stroke: #A80036; stroke-width: 1.5;" width="169" x="1280.5" y="445.6406"/><ellipse cx="1295.5" cy="461.6406" fill="#ADD1B2" rx="11" ry="11" style="stroke: #A80036; stroke-width: 1.0;"/><path d="M1298.2656,457.5156 Q1298.4219,457.2969 1298.6094,457.1875 Q1298.7969,457.0781 1299.0156,457.0781 Q1299.3906,457.0781 1299.625,457.3359 Q1299.8594,457.5938 1299.8594,458.2031 L1299.8594,459.6563 Q1299.8594,460.2656 1299.625,460.5313 Q1299.3906,460.7969 1299.0156,460.7969 Q1298.6719,460.7969 1298.4688,460.5938 Q1298.2656,460.4063 1298.1563,459.8906 Q1298.1094,459.5313 1297.9219,459.3438 Q1297.5938,458.9688 1296.9844,458.75 Q1296.375,458.5313 1295.75,458.5313 Q1294.9844,458.5313 1294.3516,458.8594 Q1293.7188,459.1875 1293.2266,459.9375 Q1292.7344,460.6875 1292.7344,461.7188 L1292.7344,462.8125 Q1292.7344,464.0469 1293.625,464.8672 Q1294.5156,465.6875 1296.1094,465.6875 Q1297.0469,465.6875 1297.7031,465.4375 Q1298.0938,465.2813 1298.5156,464.8438 Q1298.7813,464.5781 1298.9297,464.5 Q1299.0781,464.4219 1299.2813,464.4219 Q1299.6094,464.4219 1299.8672,464.6797 Q1300.125,464.9375 1300.125,465.2813 Q1300.125,465.625 1299.7813,466.0313 Q1299.2813,466.6094 1298.4844,466.9375 Q1297.4063,467.3906 1296.1094,467.3906 Q1294.5938,467.3906 1293.3906,466.7656 Q1292.4063,466.2656 1291.7188,465.1953 Q1291.0313,464.125 1291.0313,462.8438 L1291.0313,461.6875 Q1291.0313,460.3594 1291.6484,459.2109 Q1292.2656,458.0625 1293.3594,457.4453 Q1294.4531,456.8281 1295.6875,456.8281 Q1296.4219,456.8281 1297.0703,456.9922 Q1297.7188,457.1563 1298.2656,457.5156 Z "/><text fill="#000000" font-family="sans-serif" font-size="12" lengthAdjust="spacingAndGlyphs" textLength="137" x="1309.5" y="466.5508">geom:Derived_Geometry</text><line style="stroke: #A80036; stroke-width: 1.5;" x1="1281.5" x2="1448.5" y1="477.6406" y2="477.6406"/><text fill="#000000" font-family="sans-serif" font-size="11" lengthAdjust="spacingAndGlyphs" textLength="102" x="1286.5" y="493.0596">incidence_angle: real</text><text fill="#000000" font-family="sans-serif" font-size="11" lengthAdjust="spacingAndGlyphs" textLength="98" x="1286.5" y="506.8955">emission_angle: real</text><text fill="#000000" font-family="sans-serif" font-size="11" lengthAdjust="spacingAndGlyphs" textLength="86" x="1286.5" y="520.7314">phase_angle: real</text><text fill="#000000" font-family="sans-serif" font-size="11" lengthAdjust="spacingAndGlyphs" textLength="117" x="1286.5" y="534.5674">instrument_azimuth: real</text><text fill="#000000" font-family="sans-serif" font-size="11" lengthAdjust="spacingAndGlyphs" textLength="123" x="1286.5" y="548.4033">instrument_elevation: real</text><text fill="#000000" font-family="sans-serif" font-size="11" lengthAdjust="spacingAndGlyphs" textLength="91" x="1286.5" y="562.2393">solar_azimuth: real</text><text fill="#000000" font-family="sans-serif" font-size="11" lengthAdjust="spacingAndGlyphs" textLength="97" x="1286.5" y="576.0752">solar_elevation: real</text><text fill="#000000" font-family="sans-serif" font-size="11" lengthAdjust="spacingAndGlyphs" textLength="89" x="1286.5" y="589.9111">start_azimuth: real</text><text fill="#000000" font-family="sans-serif" font-size="11" lengthAdjust="spacingAndGlyphs" textLength="88" x="1286.5" y="603.7471">stop_azimuth: real</text><line style="stroke: #A80036; stroke-width: 1.5;" x1="1281.5" x2="1448.5" y1="610.1641" y2="610.1641"/><!--class geom:Distances--><rect fill="#FEFECE" filter="url(#fxybee0e6nzm8)" height="48" id="geom:Distances" style="stroke: #A80036; stroke-width: 1.5;" width="123" x="1511.5" y="508.1406"/><ellipse cx="1526.5" cy="524.1406" fill="#ADD1B2" rx="11" ry="11" style="stroke: #A80036; stroke-width: 1.0;"/><path d="M1529.2656,520.0156 Q1529.4219,519.7969 1529.6094,519.6875 Q1529.7969,519.5781 1530.0156,519.5781 Q1530.3906,519.5781 1530.625,519.8359 Q1530.8594,520.0938 1530.8594,520.7031 L1530.8594,522.1563 Q1530.8594,522.7656 1530.625,523.0313 Q1530.3906,523.2969 1530.0156,523.2969 Q1529.6719,523.2969 1529.4688,523.0938 Q1529.2656,522.9063 1529.1563,522.3906 Q1529.1094,522.0313 1528.9219,521.8438 Q1528.5938,521.4688 1527.9844,521.25 Q1527.375,521.0313 1526.75,521.0313 Q1525.9844,521.0313 1525.3516,521.3594 Q1524.7188,521.6875 1524.2266,522.4375 Q1523.7344,523.1875 1523.7344,524.2188 L1523.7344,525.3125 Q1523.7344,526.5469 1524.625,527.3672 Q1525.5156,528.1875 1527.1094,528.1875 Q1528.0469,528.1875 1528.7031,527.9375 Q1529.0938,527.7813 1529.5156,527.3438 Q1529.7813,527.0781 1529.9297,527 Q1530.0781,526.9219 1530.2813,526.9219 Q1530.6094,526.9219 1530.8672,527.1797 Q1531.125,527.4375 1531.125,527.7813 Q1531.125,528.125 1530.7813,528.5313 Q1530.2813,529.1094 1529.4844,529.4375 Q1528.4063,529.8906 1527.1094,529.8906 Q1525.5938,529.8906 1524.3906,529.2656 Q1523.4063,528.7656 1522.7188,527.6953 Q1522.0313,526.625 1522.0313,525.3438 L1522.0313,524.1875 Q1522.0313,522.8594 1522.6484,521.7109 Q1523.2656,520.5625 1524.3594,519.9453 Q1525.4531,519.3281 1526.6875,519.3281 Q1527.4219,519.3281 1528.0703,519.4922 Q1528.7188,519.6563 1529.2656,520.0156 Z "/><text fill="#000000" font-family="sans-serif" font-size="12" lengthAdjust="spacingAndGlyphs" textLength="91" x="1540.5" y="529.0508">geom:Distances</text><line style="stroke: #A80036; stroke-width: 1.5;" x1="1512.5" x2="1633.5" y1="540.1406" y2="540.1406"/><line style="stroke: #A80036; stroke-width: 1.5;" x1="1512.5" x2="1633.5" y1="548.1406" y2="548.1406"/><!--class geom:Pixel_Size_Projected--><rect fill="#FEFECE" filter="url(#fxybee0e6nzm8)" height="103.3438" id="geom:Pixel_Size_Projected" style="stroke: #A80036; stroke-width: 1.5;" width="182" x="1050" y="692.6406"/><ellipse cx="1065" cy="708.6406" fill="#ADD1B2" rx="11" ry="11" style="stroke: #A80036; stroke-width: 1.0;"/><path d="M1067.7656,704.5156 Q1067.9219,704.2969 1068.1094,704.1875 Q1068.2969,704.0781 1068.5156,704.0781 Q1068.8906,704.0781 1069.125,704.3359 Q1069.3594,704.5938 1069.3594,705.2031 L1069.3594,706.6563 Q1069.3594,707.2656 1069.125,707.5313 Q1068.8906,707.7969 1068.5156,707.7969 Q1068.1719,707.7969 1067.9688,707.5938 Q1067.7656,707.4063 1067.6563,706.8906 Q1067.6094,706.5313 1067.4219,706.3438 Q1067.0938,705.9688 1066.4844,705.75 Q1065.875,705.5313 1065.25,705.5313 Q1064.4844,705.5313 1063.8516,705.8594 Q1063.2188,706.1875 1062.7266,706.9375 Q1062.2344,707.6875 1062.2344,708.7188 L1062.2344,709.8125 Q1062.2344,711.0469 1063.125,711.8672 Q1064.0156,712.6875 1065.6094,712.6875 Q1066.5469,712.6875 1067.2031,712.4375 Q1067.5938,712.2813 1068.0156,711.8438 Q1068.2813,711.5781 1068.4297,711.5 Q1068.5781,711.4219 1068.7813,711.4219 Q1069.1094,711.4219 1069.3672,711.6797 Q1069.625,711.9375 1069.625,712.2813 Q1069.625,712.625 1069.2813,713.0313 Q1068.7813,713.6094 1067.9844,713.9375 Q1066.9063,714.3906 1065.6094,714.3906 Q1064.0938,714.3906 1062.8906,713.7656 Q1061.9063,713.2656 1061.2188,712.1953 Q1060.5313,711.125 1060.5313,709.8438 L1060.5313,708.6875 Q1060.5313,707.3594 1061.1484,706.2109 Q1061.7656,705.0625 1062.8594,704.4453 Q1063.9531,703.8281 1065.1875,703.8281 Q1065.9219,703.8281 1066.5703,703.9922 Q1067.2188,704.1563 1067.7656,704.5156 Z "/><text fill="#000000" font-family="sans-serif" font-size="12" lengthAdjust="spacingAndGlyphs" textLength="150" x="1079" y="713.5508">geom:Pixel_Size_Projected</text><line style="stroke: #A80036; stroke-width: 1.5;" x1="1051" x2="1231" y1="724.6406" y2="724.6406"/><text fill="#000000" font-family="sans-serif" font-size="11" lengthAdjust="spacingAndGlyphs" textLength="124" x="1056" y="740.0596">reference_location: string</text><text fill="#000000" font-family="sans-serif" font-size="11" lengthAdjust="spacingAndGlyphs" textLength="65" x="1056" y="753.8955">distance: real</text><text fill="#000000" font-family="sans-serif" font-size="11" lengthAdjust="spacingAndGlyphs" textLength="145" x="1056" y="767.7314">horizontal_pixel_footprint: real</text><text fill="#000000" font-family="sans-serif" font-size="11" lengthAdjust="spacingAndGlyphs" textLength="133" x="1056" y="781.5674">vertical_pixel_footprint: real</text><line style="stroke: #A80036; stroke-width: 1.5;" x1="1051" x2="1231" y1="787.9844" y2="787.9844"/><!--class geom:Distances_Specific--><rect fill="#FEFECE" filter="url(#fxybee0e6nzm8)" height="89.5078" id="geom:Distances_Specific" style="stroke: #A80036; stroke-width: 1.5;" width="173" x="1267.5" y="699.1406"/><ellipse cx="1282.5" cy="715.1406" fill="#ADD1B2" rx="11" ry="11" style="stroke: #A80036; stroke-width: 1.0;"/><path d="M1285.2656,711.0156 Q1285.4219,710.7969 1285.6094,710.6875 Q1285.7969,710.5781 1286.0156,710.5781 Q1286.3906,710.5781 1286.625,710.8359 Q1286.8594,711.0938 1286.8594,711.7031 L1286.8594,713.1563 Q1286.8594,713.7656 1286.625,714.0313 Q1286.3906,714.2969 1286.0156,714.2969 Q1285.6719,714.2969 1285.4688,714.0938 Q1285.2656,713.9063 1285.1563,713.3906 Q1285.1094,713.0313 1284.9219,712.8438 Q1284.5938,712.4688 1283.9844,712.25 Q1283.375,712.0313 1282.75,712.0313 Q1281.9844,712.0313 1281.3516,712.3594 Q1280.7188,712.6875 1280.2266,713.4375 Q1279.7344,714.1875 1279.7344,715.2188 L1279.7344,716.3125 Q1279.7344,717.5469 1280.625,718.3672 Q1281.5156,719.1875 1283.1094,719.1875 Q1284.0469,719.1875 1284.7031,718.9375 Q1285.0938,718.7813 1285.5156,718.3438 Q1285.7813,718.0781 1285.9297,718 Q1286.0781,717.9219 1286.2813,717.9219 Q1286.6094,717.9219 1286.8672,718.1797 Q1287.125,718.4375 1287.125,718.7813 Q1287.125,719.125 1286.7813,719.5313 Q1286.2813,720.1094 1285.4844,720.4375 Q1284.4063,720.8906 1283.1094,720.8906 Q1281.5938,720.8906 1280.3906,720.2656 Q1279.4063,719.7656 1278.7188,718.6953 Q1278.0313,717.625 1278.0313,716.3438 L1278.0313,715.1875 Q1278.0313,713.8594 1278.6484,712.7109 Q1279.2656,711.5625 1280.3594,710.9453 Q1281.4531,710.3281 1282.6875,710.3281 Q1283.4219,710.3281 1284.0703,710.4922 Q1284.7188,710.6563 1285.2656,711.0156 Z "/><text fill="#000000" font-family="sans-serif" font-size="12" lengthAdjust="spacingAndGlyphs" textLength="141" x="1296.5" y="720.0508">geom:Distances_Specific</text><line style="stroke: #A80036; stroke-width: 1.5;" x1="1268.5" x2="1439.5" y1="731.1406" y2="731.1406"/><text fill="#000000" font-family="sans-serif" font-size="11" lengthAdjust="spacingAndGlyphs" textLength="156" x="1273.5" y="746.5596">target_geocentric_distance: real</text><text fill="#000000" font-family="sans-serif" font-size="11" lengthAdjust="spacingAndGlyphs" textLength="160" x="1273.5" y="760.3955">target_heliocentric_distance: real</text><text fill="#000000" font-family="sans-serif" font-size="11" lengthAdjust="spacingAndGlyphs" textLength="123" x="1273.5" y="774.2314">target_ssb_distance: real</text><line style="stroke: #A80036; stroke-width: 1.5;" x1="1268.5" x2="1439.5" y1="780.6484" y2="780.6484"/><!--class geom:Distances_Min_Max--><rect fill="#FEFECE" filter="url(#fxybee0e6nzm8)" height="131.0156" id="geom:Distances_Min_Max" style="stroke: #A80036; stroke-width: 1.5;" width="222" x="1476" y="678.6406"/><ellipse cx="1511.25" cy="694.6406" fill="#ADD1B2" rx="11" ry="11" style="stroke: #A80036; stroke-width: 1.0;"/><path d="M1514.0156,690.5156 Q1514.1719,690.2969 1514.3594,690.1875 Q1514.5469,690.0781 1514.7656,690.0781 Q1515.1406,690.0781 1515.375,690.3359 Q1515.6094,690.5938 1515.6094,691.2031 L1515.6094,692.6563 Q1515.6094,693.2656 1515.375,693.5313 Q1515.1406,693.7969 1514.7656,693.7969 Q1514.4219,693.7969 1514.2188,693.5938 Q1514.0156,693.4063 1513.9063,692.8906 Q1513.8594,692.5313 1513.6719,692.3438 Q1513.3438,691.9688 1512.7344,691.75 Q1512.125,691.5313 1511.5,691.5313 Q1510.7344,691.5313 1510.1016,691.8594 Q1509.4688,692.1875 1508.9766,692.9375 Q1508.4844,693.6875 1508.4844,694.7188 L1508.4844,695.8125 Q1508.4844,697.0469 1509.375,697.8672 Q1510.2656,698.6875 1511.8594,698.6875 Q1512.7969,698.6875 1513.4531,698.4375 Q1513.8438,698.2813 1514.2656,697.8438 Q1514.5313,697.5781 1514.6797,697.5 Q1514.8281,697.4219 1515.0313,697.4219 Q1515.3594,697.4219 1515.6172,697.6797 Q1515.875,697.9375 1515.875,698.2813 Q1515.875,698.625 1515.5313,699.0313 Q1515.0313,699.6094 1514.2344,699.9375 Q1513.1563,700.3906 1511.8594,700.3906 Q1510.3438,700.3906 1509.1406,699.7656 Q1508.1563,699.2656 1507.4688,698.1953 Q1506.7813,697.125 1506.7813,695.8438 L1506.7813,694.6875 Q1506.7813,693.3594 1507.3984,692.2109 Q1508.0156,691.0625 1509.1094,690.4453 Q1510.2031,689.8281 1511.4375,689.8281 Q1512.1719,689.8281 1512.8203,689.9922 Q1513.4688,690.1563 1514.0156,690.5156 Z "/><text fill="#000000" font-family="sans-serif" font-size="12" lengthAdjust="spacingAndGlyphs" textLength="145" x="1529.75" y="699.5508">geom:Distances_Min_Max</text><line style="stroke: #A80036; stroke-width: 1.5;" x1="1477" x2="1697" y1="710.6406" y2="710.6406"/><text fill="#000000" font-family="sans-serif" font-size="11" lengthAdjust="spacingAndGlyphs" textLength="202" x="1482" y="726.0596">minimum_target_geocentric_distance: real</text><text fill="#000000" font-family="sans-serif" font-size="11" lengthAdjust="spacingAndGlyphs" textLength="206" x="1482" y="739.8955">maximum_target_geocentric_distance: real</text><text fill="#000000" font-family="sans-serif" font-size="11" lengthAdjust="spacingAndGlyphs" textLength="206" x="1482" y="753.7314">minimum_target_heliocentric_distance: real</text><text fill="#000000" font-family="sans-serif" font-size="11" lengthAdjust="spacingAndGlyphs" textLength="210" x="1482" y="767.5674">maximum_target_heliocentric_distance: real</text><text fill="#000000" font-family="sans-serif" font-size="11" lengthAdjust="spacingAndGlyphs" textLength="169" x="1482" y="781.4033">minimum_target_ssb_distance: real</text><text fill="#000000" font-family="sans-serif" font-size="11" lengthAdjust="spacingAndGlyphs" textLength="173" x="1482" y="795.2393">maximum_target_ssb_distance: real</text><line style="stroke: #A80036; stroke-width: 1.5;" x1="1477" x2="1697" y1="801.6563" y2="801.6563"/><!--class geom:Distances_Start_Stop--><rect fill="#FEFECE" filter="url(#fxybee0e6nzm8)" height="131.0156" id="geom:Distances_Start_Stop" style="stroke: #A80036; stroke-width: 1.5;" width="200" x="1733" y="678.6406"/><ellipse cx="1753.85" cy="694.6406" fill="#ADD1B2" rx="11" ry="11" style="stroke: #A80036; stroke-width: 1.0;"/><path d="M1756.6156,690.5156 Q1756.7719,690.2969 1756.9594,690.1875 Q1757.1469,690.0781 1757.3656,690.0781 Q1757.7406,690.0781 1757.975,690.3359 Q1758.2094,690.5938 1758.2094,691.2031 L1758.2094,692.6563 Q1758.2094,693.2656 1757.975,693.5313 Q1757.7406,693.7969 1757.3656,693.7969 Q1757.0219,693.7969 1756.8188,693.5938 Q1756.6156,693.4063 1756.5063,692.8906 Q1756.4594,692.5313 1756.2719,692.3438 Q1755.9438,691.9688 1755.3344,691.75 Q1754.725,691.5313 1754.1,691.5313 Q1753.3344,691.5313 1752.7016,691.8594 Q1752.0688,692.1875 1751.5766,692.9375 Q1751.0844,693.6875 1751.0844,694.7188 L1751.0844,695.8125 Q1751.0844,697.0469 1751.975,697.8672 Q1752.8656,698.6875 1754.4594,698.6875 Q1755.3969,698.6875 1756.0531,698.4375 Q1756.4438,698.2813 1756.8656,697.8438 Q1757.1313,697.5781 1757.2797,697.5 Q1757.4281,697.4219 1757.6313,697.4219 Q1757.9594,697.4219 1758.2172,697.6797 Q1758.475,697.9375 1758.475,698.2813 Q1758.475,698.625 1758.1313,699.0313 Q1757.6313,699.6094 1756.8344,699.9375 Q1755.7563,700.3906 1754.4594,700.3906 Q1752.9438,700.3906 1751.7406,699.7656 Q1750.7563,699.2656 1750.0688,698.1953 Q1749.3813,697.125 1749.3813,695.8438 L1749.3813,694.6875 Q1749.3813,693.3594 1749.9984,692.2109 Q1750.6156,691.0625 1751.7094,690.4453 Q1752.8031,689.8281 1754.0375,689.8281 Q1754.7719,689.8281 1755.4203,689.9922 Q1756.0688,690.1563 1756.6156,690.5156 Z "/><text fill="#000000" font-family="sans-serif" font-size="12" lengthAdjust="spacingAndGlyphs" textLength="155" x="1769.15" y="699.5508">geom:Distances_Start_Stop</text><line style="stroke: #A80036; stroke-width: 1.5;" x1="1734" x2="1932" y1="710.6406" y2="710.6406"/><text fill="#000000" font-family="sans-serif" font-size="11" lengthAdjust="spacingAndGlyphs" textLength="184" x="1739" y="726.0596">start_target_geocentric_distance: real</text><text fill="#000000" font-family="sans-serif" font-size="11" lengthAdjust="spacingAndGlyphs" textLength="183" x="1739" y="739.8955">stop_target_geocentric_distance: real</text><text fill="#000000" font-family="sans-serif" font-size="11" lengthAdjust="spacingAndGlyphs" textLength="188" x="1739" y="753.7314">start_target_heliocentric_distance: real</text><text fill="#000000" font-family="sans-serif" font-size="11" lengthAdjust="spacingAndGlyphs" textLength="187" x="1739" y="767.5674">stop_target_heliocentric_distance: real</text><text fill="#000000" font-family="sans-serif" font-size="11" lengthAdjust="spacingAndGlyphs" textLength="151" x="1739" y="781.4033">start_target_ssb_distance: real</text><text fill="#000000" font-family="sans-serif" font-size="11" lengthAdjust="spacingAndGlyphs" textLength="150" x="1739" y="795.2393">stop_target_ssb_distance: real</text><line style="stroke: #A80036; stroke-width: 1.5;" x1="1734" x2="1932" y1="801.6563" y2="801.6563"/><!--link Groundbased_Parameters to Image_Orientation--><path d="M813.248,234.2966 C811.486,234.7506 809.736,235.1996 808,235.6406 C735.923,253.9706 532.025,300.3426 425.188,324.4936 " fill="none" id="Groundbased_Parameters-Image_Orientation" style="stroke: #A80036; stroke-width: 1.0;"/><polygon fill="#A80036" points="825.916,230.9816,819.099,228.6303,814.3066,234.0185,821.1236,236.3698,825.916,230.9816" style="stroke: #A80036; stroke-width: 1.0;"/><!--link Groundbased_Parameters to Instrument_Parameters--><path d="M845.804,241.6796 C804.536,262.8676 752.953,289.3506 713.829,309.4376 " fill="none" id="Groundbased_Parameters-Instrument_Parameters" style="stroke: #A80036; stroke-width: 1.0;"/><polygon fill="#A80036" points="857.427,235.7126,850.2624,234.8953,846.7523,241.1944,853.9169,242.0118,857.427,235.7126" style="stroke: #A80036; stroke-width: 1.0;"/><!--link Groundbased_Parameters to Quality--><path d="M904.505,248.4276 C899.833,265.8176 894.485,285.7226 889.98,302.4916 " fill="none" id="Groundbased_Parameters-Quality" style="stroke: #A80036; stroke-width: 1.0;"/><polygon fill="#A80036" points="907.921,235.7126,902.5007,240.4687,904.8062,247.3013,910.2265,242.5452,907.921,235.7126" style="stroke: #A80036; stroke-width: 1.0;"/><!--link Quality to Seeing--><path d="M875.189,392.2876 C871.897,426.9516 867.641,471.7516 864.868,500.9516 " fill="none" id="Quality-Seeing" style="stroke: #A80036; stroke-width: 1.0;"/><polygon fill="#A80036" points="876.444,379.0796,871.8949,384.6747,875.3099,391.0259,879.859,385.4308,876.444,379.0796" style="stroke: #A80036; stroke-width: 1.0;"/><!--link Quality to Airmass--><path d="M841.729,389.3536 C819.425,417.1606 791.311,452.2106 768.616,480.5036 " fill="none" id="Quality-Airmass" style="stroke: #A80036; stroke-width: 1.0;"/><polygon fill="#A80036" points="849.97,379.0796,843.0956,381.2573,842.4618,388.4405,849.3362,386.2628,849.97,379.0796" style="stroke: #A80036; stroke-width: 1.0;"/><!--link Quality to Weather--><path d="M905.865,390.6546 C919.248,416.0156 935.666,447.1276 949.647,473.6216 " fill="none" id="Quality-Weather" style="stroke: #A80036; stroke-width: 1.0;"/><polygon fill="#A80036" points="899.757,379.0796,899.0196,386.2529,905.3575,389.6925,906.0949,382.5192,899.757,379.0796" style="stroke: #A80036; stroke-width: 1.0;"/><!--link Groundbased_Parameters to Geometry_Groundbased--><path d="M1018.9,237.7086 C1096.91,262.0166 1202.24,294.8426 1272.06,316.5986 " fill="none" id="Groundbased_Parameters-Geometry_Groundbased" style="stroke: #A80036; stroke-width: 1.0;"/><polygon fill="#A80036" points="1006.14,233.7316,1010.6767,239.3368,1017.5956,237.3049,1013.0589,231.6997,1006.14,233.7316" style="stroke: #A80036; stroke-width: 1.0;"/><!--link Geometry_Groundbased to geom:Pixel_Dimensions--><path d="M1312.81,374.3986 C1281.23,405.5646 1233.5,452.6776 1198.61,487.1146 " fill="none" id="Geometry_Groundbased-geom:Pixel_Dimensions" style="stroke: #A80036; stroke-width: 1.0;"/><polygon fill="#A80036" points="1322.46,364.8766,1315.3795,366.243,1313.9175,373.3043,1320.998,371.938,1322.46,364.8766" style="stroke: #A80036; stroke-width: 1.0;"/><!--link geom:Pixel_Dimensions to geom:Pixel_Size_Projected--><path d="M1150.46,590.3456 C1148.48,622.2836 1146.04,661.7226 1144.13,692.5316 " fill="none" id="geom:Pixel_Dimensions-geom:Pixel_Size_Projected" style="stroke: #A80036; stroke-width: 1.0;"/><polygon fill="#A80036" points="1151.27,577.1636,1146.907,582.9051,1150.5287,589.1407,1154.8917,583.3993,1151.27,577.1636" style="stroke: #A80036; stroke-width: 1.0;"/><!--link Geometry_Groundbased to geom:Derived_Geometry--><path d="M1349.63,377.8556 C1351.56,397.0816 1354.02,421.5936 1356.4,445.3486 " fill="none" id="Geometry_Groundbased-geom:Derived_Geometry" style="stroke: #A80036; stroke-width: 1.0;"/><polygon fill="#A80036" points="1348.33,364.8766,1344.949,371.246,1349.528,376.8167,1352.909,370.4473,1348.33,364.8766" style="stroke: #A80036; stroke-width: 1.0;"/><!--link Geometry_Groundbased to geom:Distances--><path d="M1383.91,373.2876 C1429.47,411.3246 1504.84,474.2386 1545.29,508.0106 " fill="none" id="Geometry_Groundbased-geom:Distances" style="stroke: #A80036; stroke-width: 1.0;"/><polygon fill="#A80036" points="1373.83,364.8766,1375.8732,371.7922,1383.0427,372.566,1380.9995,365.6504,1373.83,364.8766" style="stroke: #A80036; stroke-width: 1.0;"/><!--link geom:Distances to geom:Distances_Specific--><path d="M1539.32,565.4376 C1502.06,601.1666 1441.79,658.9556 1400.15,698.8836 " fill="none" id="geom:Distances-geom:Distances_Specific" style="stroke: #A80036; stroke-width: 1.0;"/><polygon fill="#A80036" points="1548.73,556.4166,1541.631,557.6833,1540.0699,564.7234,1547.1689,563.4567,1548.73,556.4166" style="stroke: #A80036; stroke-width: 1.0;"/><!--link geom:Distances to geom:Distances_Min_Max--><path d="M1575.43,569.5786 C1577.43,599.5506 1580.31,642.7666 1582.7,678.5766 " fill="none" id="geom:Distances-geom:Distances_Min_Max" style="stroke: #A80036; stroke-width: 1.0;"/><polygon fill="#A80036" points="1574.55,556.4166,1570.9577,562.6693,1575.3478,568.3901,1578.94,562.1374,1574.55,556.4166" style="stroke: #A80036; stroke-width: 1.0;"/><!--link geom:Distances to geom:Distances_Start_Stop--><path d="M1612.22,564.8166 C1649.38,594.8356 1706.32,640.8226 1753.06,678.5766 " fill="none" id="geom:Distances-geom:Distances_Start_Stop" style="stroke: #A80036; stroke-width: 1.0;"/><polygon fill="#A80036" points="1601.82,556.4166,1603.9729,563.2988,1611.1538,563.9585,1609.0009,557.0763,1601.82,556.4166" style="stroke: #A80036; stroke-width: 1.0;"/><!--
@startuml

title Groundbased Dictionary Class Diagram

class Groundbased_Parameters {
    apparentVisualMagnitude: real
}
note top 
    This class is intended to provide additional metadata for groundbased observations.
    Much of the information is geometry information, but in a ground-based context.
    ....
    Typically, this would go into the geometry dictionary,
    but the geometry dictionary is currently focused solely on missions.
end note


class Image_Orientation {
    northClockAngle: real
    eastClockAngle: real
    clockDirection: string
}
note top
    This is intended to deal with potential East-West flips,
    and to make unambiguous the direction that clock angles are
    measured in.
endnote

class Instrument_Parameters {
    instrumentTemperature: real
}
note top
    measures instrument temperatures, along with other potential
    instrument parameters that may affect the observation.
endnote

class Quality {
    photometric: boolean
    notes: string
}

class Airmass {
    airmass: real
    measurementTime: date
    measurementX: integer
    measurementY: integer
}

class Seeing {
    fwhm: real
}

class Weather {
    temperature: real
    pressure: real
    humidity: real
    clouds: real
    notes: string
}

class Geometry_Groundbased 
note top 
    We should not depend directly on the geometry classes.
    We will either have to clone the geometry classes or define our own versions.
end note

class geom:Pixel_Dimensions {
    pixel_field_of_view_method: string
    horizontal_pixel_field_of_view: real
    vertical_pixel_field_of_view: real
}

class geom:Derived_Geometry {
    incidence_angle: real
    emission_angle: real
    phase_angle: real
    instrument_azimuth: real
    instrument_elevation: real
    solar_azimuth: real
    solar_elevation: real
    start_azimuth: real
    stop_azimuth: real
}

class geom:Distances

class geom:Pixel_Size_Projected {
    reference_location: string
    distance: real
    horizontal_pixel_footprint: real
    vertical_pixel_footprint: real
}

class geom:Distances_Specific {
    target_geocentric_distance: real
    target_heliocentric_distance: real
    target_ssb_distance: real
}

class geom:Distances_Min_Max {
    minimum_target_geocentric_distance: real
    maximum_target_geocentric_distance: real
    minimum_target_heliocentric_distance: real
    maximum_target_heliocentric_distance: real
    minimum_target_ssb_distance: real
    maximum_target_ssb_distance: real
}

class geom:Distances_Start_Stop {
    start_target_geocentric_distance: real
    stop_target_geocentric_distance: real
    start_target_heliocentric_distance: real
    stop_target_heliocentric_distance: real
    start_target_ssb_distance: real
    stop_target_ssb_distance: real
}

Groundbased_Parameters *- - Image_Orientation
Groundbased_Parameters *- - Instrument_Parameters
Groundbased_Parameters *- - Quality
Quality *- - Seeing
Quality *- - Airmass
Quality *- - Weather
Groundbased_Parameters *- - Geometry_Groundbased
Geometry_Groundbased *- - "geom:Pixel_Dimensions"
"geom:Pixel_Dimensions" *- - "geom:Pixel_Size_Projected"
Geometry_Groundbased *- - "geom:Derived_Geometry"
Geometry_Groundbased *- - "geom:Distances"
"geom:Distances" *- - "geom:Distances_Specific"
"geom:Distances" *- - "geom:Distances_Min_Max"
"geom:Distances" *- - "geom:Distances_Start_Stop"

@enduml

PlantUML version 1.2018.10(Sat Aug 25 10:02:59 MST 2018)
(GPL source distribution)
Java Runtime: Java(TM) SE Runtime Environment
JVM: Java HotSpot(TM) 64-Bit Server VM
Java Version: 1.8.0_181-b13
Operating System: Windows 10
OS Version: 10.0
Default Encoding: UTF-8
Language: en
Country: US
--></g></svg>