<?xml version="1.0" encoding="UTF-8" standalone="no"?><svg xmlns="http://www.w3.org/2000/svg" xmlns:xlink="http://www.w3.org/1999/xlink" contentScriptType="application/ecmascript" contentStyleType="text/css" height="833px" preserveAspectRatio="none" style="width:900px;height:833px;" version="1.1" viewBox="0 0 900 833" width="900px" zoomAndPan="magnify"><defs><filter height="300%" id="f13wxaak087ecx" width="300%" x="-1" y="-1"><feGaussianBlur result="blurOut" stdDeviation="2.0"/><feColorMatrix in="blurOut" result="blurOut2" type="matrix" values="0 0 0 0 0 0 0 0 0 0 0 0 0 0 0 0 0 0 .4 0"/><feOffset dx="4.0" dy="4.0" in="blurOut2" result="blurOut3"/><feBlend in="SourceGraphic" in2="blurOut3" mode="normal"/></filter></defs><g><text fill="#000000" font-family="sans-serif" font-size="18" lengthAdjust="spacingAndGlyphs" textLength="316" x="295.5" y="18.6855">Groundbased Dictionary Class Diagram</text><!--class Groundbased_Parameters--><rect fill="#FEFECE" filter="url(#f13wxaak087ecx)" height="61.8359" id="Groundbased_Parameters" style="stroke: #A80036; stroke-width: 1.5;" width="180" x="522" y="173.6406"/><ellipse cx="537" cy="189.6406" fill="#ADD1B2" rx="11" ry="11" style="stroke: #A80036; stroke-width: 1.0;"/><path d="M539.7656,185.5156 Q539.9219,185.2969 540.1094,185.1875 Q540.2969,185.0781 540.5156,185.0781 Q540.8906,185.0781 541.125,185.3359 Q541.3594,185.5938 541.3594,186.2031 L541.3594,187.6563 Q541.3594,188.2656 541.125,188.5313 Q540.8906,188.7969 540.5156,188.7969 Q540.1719,188.7969 539.9688,188.5938 Q539.7656,188.4063 539.6563,187.8906 Q539.6094,187.5313 539.4219,187.3438 Q539.0938,186.9688 538.4844,186.75 Q537.875,186.5313 537.25,186.5313 Q536.4844,186.5313 535.8516,186.8594 Q535.2188,187.1875 534.7266,187.9375 Q534.2344,188.6875 534.2344,189.7188 L534.2344,190.8125 Q534.2344,192.0469 535.125,192.8672 Q536.0156,193.6875 537.6094,193.6875 Q538.5469,193.6875 539.2031,193.4375 Q539.5938,193.2813 540.0156,192.8438 Q540.2813,192.5781 540.4297,192.5 Q540.5781,192.4219 540.7813,192.4219 Q541.1094,192.4219 541.3672,192.6797 Q541.625,192.9375 541.625,193.2813 Q541.625,193.625 541.2813,194.0313 Q540.7813,194.6094 539.9844,194.9375 Q538.9063,195.3906 537.6094,195.3906 Q536.0938,195.3906 534.8906,194.7656 Q533.9063,194.2656 533.2188,193.1953 Q532.5313,192.125 532.5313,190.8438 L532.5313,189.6875 Q532.5313,188.3594 533.1484,187.2109 Q533.7656,186.0625 534.8594,185.4453 Q535.9531,184.8281 537.1875,184.8281 Q537.9219,184.8281 538.5703,184.9922 Q539.2188,185.1563 539.7656,185.5156 Z "/><text fill="#000000" font-family="sans-serif" font-size="12" lengthAdjust="spacingAndGlyphs" textLength="148" x="551" y="194.5508">Groundbased_Parameters</text><line style="stroke: #A80036; stroke-width: 1.5;" x1="523" x2="701" y1="205.6406" y2="205.6406"/><text fill="#000000" font-family="sans-serif" font-size="11" lengthAdjust="spacingAndGlyphs" textLength="146" x="528" y="221.0596">apparentVisualMagnitude: real</text><line style="stroke: #A80036; stroke-width: 1.5;" x1="523" x2="701" y1="227.4766" y2="227.4766"/><path d="M362.5,30.6406 L362.5,114.0469 A0,0 0 0 0 362.5,114.0469 L608,114.0469 L612,173.4576 L616,114.0469 L861.5,114.0469 A0,0 0 0 0 861.5,114.0469 L861.5,40.6406 L851.5,30.6406 L362.5,30.6406 A0,0 0 0 0 362.5,30.6406 " fill="#FBFB77" filter="url(#f13wxaak087ecx)" style="stroke: #A80036; stroke-width: 1.0;"/><path d="M851.5,30.6406 L851.5,40.6406 L861.5,40.6406 L851.5,30.6406 " fill="#FBFB77" style="stroke: #A80036; stroke-width: 1.0;"/><text fill="#000000" font-family="sans-serif" font-size="13" lengthAdjust="spacingAndGlyphs" textLength="478" x="368.5" y="49.1357">This class is intended to provide additional metadata for groundbased observations.</text><text fill="#000000" font-family="sans-serif" font-size="13" lengthAdjust="spacingAndGlyphs" textLength="458" x="368.5" y="65.4873">Much of the information is geometry information, but in a ground-based context.</text><line style="stroke: #A80036; stroke-width: 1.0; stroke-dasharray: 1.0,2.0;" x1="363.5" x2="860.5" y1="68.3438" y2="68.3438"/><text fill="#000000" font-family="sans-serif" font-size="13" lengthAdjust="spacingAndGlyphs" textLength="304" x="368.5" y="85.8389">Typically, this would go into the geometry dictionary,</text><text fill="#000000" font-family="sans-serif" font-size="13" lengthAdjust="spacingAndGlyphs" textLength="391" x="368.5" y="102.1904">but the geometry dictionary is currently focused solely on missions.</text><!--class Airmass--><rect fill="#FEFECE" filter="url(#f13wxaak087ecx)" height="103.3438" id="Airmass" style="stroke: #A80036; stroke-width: 1.5;" width="126" x="549" y="295.6406"/><ellipse cx="585.6" cy="311.6406" fill="#ADD1B2" rx="11" ry="11" style="stroke: #A80036; stroke-width: 1.0;"/><path d="M588.3656,307.5156 Q588.5219,307.2969 588.7094,307.1875 Q588.8969,307.0781 589.1156,307.0781 Q589.4906,307.0781 589.725,307.3359 Q589.9594,307.5938 589.9594,308.2031 L589.9594,309.6563 Q589.9594,310.2656 589.725,310.5313 Q589.4906,310.7969 589.1156,310.7969 Q588.7719,310.7969 588.5688,310.5938 Q588.3656,310.4063 588.2563,309.8906 Q588.2094,309.5313 588.0219,309.3438 Q587.6938,308.9688 587.0844,308.75 Q586.475,308.5313 585.85,308.5313 Q585.0844,308.5313 584.4516,308.8594 Q583.8188,309.1875 583.3266,309.9375 Q582.8344,310.6875 582.8344,311.7188 L582.8344,312.8125 Q582.8344,314.0469 583.725,314.8672 Q584.6156,315.6875 586.2094,315.6875 Q587.1469,315.6875 587.8031,315.4375 Q588.1938,315.2813 588.6156,314.8438 Q588.8813,314.5781 589.0297,314.5 Q589.1781,314.4219 589.3813,314.4219 Q589.7094,314.4219 589.9672,314.6797 Q590.225,314.9375 590.225,315.2813 Q590.225,315.625 589.8813,316.0313 Q589.3813,316.6094 588.5844,316.9375 Q587.5063,317.3906 586.2094,317.3906 Q584.6938,317.3906 583.4906,316.7656 Q582.5063,316.2656 581.8188,315.1953 Q581.1313,314.125 581.1313,312.8438 L581.1313,311.6875 Q581.1313,310.3594 581.7484,309.2109 Q582.3656,308.0625 583.4594,307.4453 Q584.5531,306.8281 585.7875,306.8281 Q586.5219,306.8281 587.1703,306.9922 Q587.8188,307.1563 588.3656,307.5156 Z "/><text fill="#000000" font-family="sans-serif" font-size="12" lengthAdjust="spacingAndGlyphs" textLength="46" x="604.4" y="316.5508">Airmass</text><line style="stroke: #A80036; stroke-width: 1.5;" x1="550" x2="674" y1="327.6406" y2="327.6406"/><text fill="#000000" font-family="sans-serif" font-size="11" lengthAdjust="spacingAndGlyphs" textLength="62" x="555" y="343.0596">airmass: real</text><text fill="#000000" font-family="sans-serif" font-size="11" lengthAdjust="spacingAndGlyphs" textLength="114" x="555" y="356.8955">measurementTime: date</text><text fill="#000000" font-family="sans-serif" font-size="11" lengthAdjust="spacingAndGlyphs" textLength="111" x="555" y="370.7314">measurementX: integer</text><text fill="#000000" font-family="sans-serif" font-size="11" lengthAdjust="spacingAndGlyphs" textLength="112" x="555" y="384.5674">measurementY: integer</text><line style="stroke: #A80036; stroke-width: 1.5;" x1="550" x2="674" y1="390.9844" y2="390.9844"/><!--class Geometry_Groundbased--><rect fill="#FEFECE" filter="url(#f13wxaak087ecx)" height="48" id="Geometry_Groundbased" style="stroke: #A80036; stroke-width: 1.5;" width="168" x="258" y="323.1406"/><ellipse cx="273" cy="339.1406" fill="#ADD1B2" rx="11" ry="11" style="stroke: #A80036; stroke-width: 1.0;"/><path d="M275.7656,335.0156 Q275.9219,334.7969 276.1094,334.6875 Q276.2969,334.5781 276.5156,334.5781 Q276.8906,334.5781 277.125,334.8359 Q277.3594,335.0938 277.3594,335.7031 L277.3594,337.1563 Q277.3594,337.7656 277.125,338.0313 Q276.8906,338.2969 276.5156,338.2969 Q276.1719,338.2969 275.9688,338.0938 Q275.7656,337.9063 275.6563,337.3906 Q275.6094,337.0313 275.4219,336.8438 Q275.0938,336.4688 274.4844,336.25 Q273.875,336.0313 273.25,336.0313 Q272.4844,336.0313 271.8516,336.3594 Q271.2188,336.6875 270.7266,337.4375 Q270.2344,338.1875 270.2344,339.2188 L270.2344,340.3125 Q270.2344,341.5469 271.125,342.3672 Q272.0156,343.1875 273.6094,343.1875 Q274.5469,343.1875 275.2031,342.9375 Q275.5938,342.7813 276.0156,342.3438 Q276.2813,342.0781 276.4297,342 Q276.5781,341.9219 276.7813,341.9219 Q277.1094,341.9219 277.3672,342.1797 Q277.625,342.4375 277.625,342.7813 Q277.625,343.125 277.2813,343.5313 Q276.7813,344.1094 275.9844,344.4375 Q274.9063,344.8906 273.6094,344.8906 Q272.0938,344.8906 270.8906,344.2656 Q269.9063,343.7656 269.2188,342.6953 Q268.5313,341.625 268.5313,340.3438 L268.5313,339.1875 Q268.5313,337.8594 269.1484,336.7109 Q269.7656,335.5625 270.8594,334.9453 Q271.9531,334.3281 273.1875,334.3281 Q273.9219,334.3281 274.5703,334.4922 Q275.2188,334.6563 275.7656,335.0156 Z "/><text fill="#000000" font-family="sans-serif" font-size="12" lengthAdjust="spacingAndGlyphs" textLength="136" x="287" y="344.0508">Geometry_Groundbased</text><line style="stroke: #A80036; stroke-width: 1.5;" x1="259" x2="425" y1="355.1406" y2="355.1406"/><line style="stroke: #A80036; stroke-width: 1.5;" x1="259" x2="425" y1="363.1406" y2="363.1406"/><path d="M21.5,183.1406 L21.5,225.8438 A0,0 0 0 0 21.5,225.8438 L262.985,225.8438 L327.496,322.9846 L270.985,225.8438 L486.5,225.8438 A0,0 0 0 0 486.5,225.8438 L486.5,193.1406 L476.5,183.1406 L21.5,183.1406 A0,0 0 0 0 21.5,183.1406 " fill="#FBFB77" filter="url(#f13wxaak087ecx)" style="stroke: #A80036; stroke-width: 1.0;"/><path d="M476.5,183.1406 L476.5,193.1406 L486.5,193.1406 L476.5,183.1406 " fill="#FBFB77" style="stroke: #A80036; stroke-width: 1.0;"/><text fill="#000000" font-family="sans-serif" font-size="13" lengthAdjust="spacingAndGlyphs" textLength="327" x="27.5" y="201.6357">We should not depend directly on the geometry classes.</text><text fill="#000000" font-family="sans-serif" font-size="13" lengthAdjust="spacingAndGlyphs" textLength="444" x="27.5" y="217.9873">We will either have to clone the geometry classes or define our own versions.</text><!--class geom:Pixel_Dimensions--><rect fill="#FEFECE" filter="url(#f13wxaak087ecx)" height="89.5078" id="geom:Pixel_Dimensions" style="stroke: #A80036; stroke-width: 1.5;" width="183" x="12.5" y="500.1406"/><ellipse cx="34.25" cy="516.1406" fill="#ADD1B2" rx="11" ry="11" style="stroke: #A80036; stroke-width: 1.0;"/><path d="M37.0156,512.0156 Q37.1719,511.7969 37.3594,511.6875 Q37.5469,511.5781 37.7656,511.5781 Q38.1406,511.5781 38.375,511.8359 Q38.6094,512.0938 38.6094,512.7031 L38.6094,514.1563 Q38.6094,514.7656 38.375,515.0313 Q38.1406,515.2969 37.7656,515.2969 Q37.4219,515.2969 37.2188,515.0938 Q37.0156,514.9063 36.9063,514.3906 Q36.8594,514.0313 36.6719,513.8438 Q36.3438,513.4688 35.7344,513.25 Q35.125,513.0313 34.5,513.0313 Q33.7344,513.0313 33.1016,513.3594 Q32.4688,513.6875 31.9766,514.4375 Q31.4844,515.1875 31.4844,516.2188 L31.4844,517.3125 Q31.4844,518.5469 32.375,519.3672 Q33.2656,520.1875 34.8594,520.1875 Q35.7969,520.1875 36.4531,519.9375 Q36.8438,519.7813 37.2656,519.3438 Q37.5313,519.0781 37.6797,519 Q37.8281,518.9219 38.0313,518.9219 Q38.3594,518.9219 38.6172,519.1797 Q38.875,519.4375 38.875,519.7813 Q38.875,520.125 38.5313,520.5313 Q38.0313,521.1094 37.2344,521.4375 Q36.1563,521.8906 34.8594,521.8906 Q33.3438,521.8906 32.1406,521.2656 Q31.1563,520.7656 30.4688,519.6953 Q29.7813,518.625 29.7813,517.3438 L29.7813,516.1875 Q29.7813,514.8594 30.3984,513.7109 Q31.0156,512.5625 32.1094,511.9453 Q33.2031,511.3281 34.4375,511.3281 Q35.1719,511.3281 35.8203,511.4922 Q36.4688,511.6563 37.0156,512.0156 Z "/><text fill="#000000" font-family="sans-serif" font-size="12" lengthAdjust="spacingAndGlyphs" textLength="136" x="49.75" y="521.0508">geom:Pixel_Dimensions</text><line style="stroke: #A80036; stroke-width: 1.5;" x1="13.5" x2="194.5" y1="532.1406" y2="532.1406"/><text fill="#000000" font-family="sans-serif" font-size="11" lengthAdjust="spacingAndGlyphs" textLength="168" x="18.5" y="547.5596">pixel_field_of_view_method: string</text><text fill="#000000" font-family="sans-serif" font-size="11" lengthAdjust="spacingAndGlyphs" textLength="171" x="18.5" y="561.3955">horizontal_pixel_field_of_view: real</text><text fill="#000000" font-family="sans-serif" font-size="11" lengthAdjust="spacingAndGlyphs" textLength="159" x="18.5" y="575.2314">vertical_pixel_field_of_view: real</text><line style="stroke: #A80036; stroke-width: 1.5;" x1="13.5" x2="194.5" y1="581.6484" y2="581.6484"/><!--class geom:Derived_Geometry--><rect fill="#FEFECE" filter="url(#f13wxaak087ecx)" height="172.5234" id="geom:Derived_Geometry" style="stroke: #A80036; stroke-width: 1.5;" width="169" x="257.5" y="458.6406"/><ellipse cx="272.5" cy="474.6406" fill="#ADD1B2" rx="11" ry="11" style="stroke: #A80036; stroke-width: 1.0;"/><path d="M275.2656,470.5156 Q275.4219,470.2969 275.6094,470.1875 Q275.7969,470.0781 276.0156,470.0781 Q276.3906,470.0781 276.625,470.3359 Q276.8594,470.5938 276.8594,471.2031 L276.8594,472.6563 Q276.8594,473.2656 276.625,473.5313 Q276.3906,473.7969 276.0156,473.7969 Q275.6719,473.7969 275.4688,473.5938 Q275.2656,473.4063 275.1563,472.8906 Q275.1094,472.5313 274.9219,472.3438 Q274.5938,471.9688 273.9844,471.75 Q273.375,471.5313 272.75,471.5313 Q271.9844,471.5313 271.3516,471.8594 Q270.7188,472.1875 270.2266,472.9375 Q269.7344,473.6875 269.7344,474.7188 L269.7344,475.8125 Q269.7344,477.0469 270.625,477.8672 Q271.5156,478.6875 273.1094,478.6875 Q274.0469,478.6875 274.7031,478.4375 Q275.0938,478.2813 275.5156,477.8438 Q275.7813,477.5781 275.9297,477.5 Q276.0781,477.4219 276.2813,477.4219 Q276.6094,477.4219 276.8672,477.6797 Q277.125,477.9375 277.125,478.2813 Q277.125,478.625 276.7813,479.0313 Q276.2813,479.6094 275.4844,479.9375 Q274.4063,480.3906 273.1094,480.3906 Q271.5938,480.3906 270.3906,479.7656 Q269.4063,479.2656 268.7188,478.1953 Q268.0313,477.125 268.0313,475.8438 L268.0313,474.6875 Q268.0313,473.3594 268.6484,472.2109 Q269.2656,471.0625 270.3594,470.4453 Q271.4531,469.8281 272.6875,469.8281 Q273.4219,469.8281 274.0703,469.9922 Q274.7188,470.1563 275.2656,470.5156 Z "/><text fill="#000000" font-family="sans-serif" font-size="12" lengthAdjust="spacingAndGlyphs" textLength="137" x="286.5" y="479.5508">geom:Derived_Geometry</text><line style="stroke: #A80036; stroke-width: 1.5;" x1="258.5" x2="425.5" y1="490.6406" y2="490.6406"/><text fill="#000000" font-family="sans-serif" font-size="11" lengthAdjust="spacingAndGlyphs" textLength="102" x="263.5" y="506.0596">incidence_angle: real</text><text fill="#000000" font-family="sans-serif" font-size="11" lengthAdjust="spacingAndGlyphs" textLength="98" x="263.5" y="519.8955">emission_angle: real</text><text fill="#000000" font-family="sans-serif" font-size="11" lengthAdjust="spacingAndGlyphs" textLength="86" x="263.5" y="533.7314">phase_angle: real</text><text fill="#000000" font-family="sans-serif" font-size="11" lengthAdjust="spacingAndGlyphs" textLength="117" x="263.5" y="547.5674">instrument_azimuth: real</text><text fill="#000000" font-family="sans-serif" font-size="11" lengthAdjust="spacingAndGlyphs" textLength="123" x="263.5" y="561.4033">instrument_elevation: real</text><text fill="#000000" font-family="sans-serif" font-size="11" lengthAdjust="spacingAndGlyphs" textLength="91" x="263.5" y="575.2393">solar_azimuth: real</text><text fill="#000000" font-family="sans-serif" font-size="11" lengthAdjust="spacingAndGlyphs" textLength="97" x="263.5" y="589.0752">solar_elevation: real</text><text fill="#000000" font-family="sans-serif" font-size="11" lengthAdjust="spacingAndGlyphs" textLength="89" x="263.5" y="602.9111">start_azimuth: real</text><text fill="#000000" font-family="sans-serif" font-size="11" lengthAdjust="spacingAndGlyphs" textLength="88" x="263.5" y="616.7471">stop_azimuth: real</text><line style="stroke: #A80036; stroke-width: 1.5;" x1="258.5" x2="425.5" y1="623.1641" y2="623.1641"/><!--class geom:Distances--><rect fill="#FEFECE" filter="url(#f13wxaak087ecx)" height="48" id="geom:Distances" style="stroke: #A80036; stroke-width: 1.5;" width="123" x="474.5" y="521.1406"/><ellipse cx="489.5" cy="537.1406" fill="#ADD1B2" rx="11" ry="11" style="stroke: #A80036; stroke-width: 1.0;"/><path d="M492.2656,533.0156 Q492.4219,532.7969 492.6094,532.6875 Q492.7969,532.5781 493.0156,532.5781 Q493.3906,532.5781 493.625,532.8359 Q493.8594,533.0938 493.8594,533.7031 L493.8594,535.1563 Q493.8594,535.7656 493.625,536.0313 Q493.3906,536.2969 493.0156,536.2969 Q492.6719,536.2969 492.4688,536.0938 Q492.2656,535.9063 492.1563,535.3906 Q492.1094,535.0313 491.9219,534.8438 Q491.5938,534.4688 490.9844,534.25 Q490.375,534.0313 489.75,534.0313 Q488.9844,534.0313 488.3516,534.3594 Q487.7188,534.6875 487.2266,535.4375 Q486.7344,536.1875 486.7344,537.2188 L486.7344,538.3125 Q486.7344,539.5469 487.625,540.3672 Q488.5156,541.1875 490.1094,541.1875 Q491.0469,541.1875 491.7031,540.9375 Q492.0938,540.7813 492.5156,540.3438 Q492.7813,540.0781 492.9297,540 Q493.0781,539.9219 493.2813,539.9219 Q493.6094,539.9219 493.8672,540.1797 Q494.125,540.4375 494.125,540.7813 Q494.125,541.125 493.7813,541.5313 Q493.2813,542.1094 492.4844,542.4375 Q491.4063,542.8906 490.1094,542.8906 Q488.5938,542.8906 487.3906,542.2656 Q486.4063,541.7656 485.7188,540.6953 Q485.0313,539.625 485.0313,538.3438 L485.0313,537.1875 Q485.0313,535.8594 485.6484,534.7109 Q486.2656,533.5625 487.3594,532.9453 Q488.4531,532.3281 489.6875,532.3281 Q490.4219,532.3281 491.0703,532.4922 Q491.7188,532.6563 492.2656,533.0156 Z "/><text fill="#000000" font-family="sans-serif" font-size="12" lengthAdjust="spacingAndGlyphs" textLength="91" x="503.5" y="542.0508">geom:Distances</text><line style="stroke: #A80036; stroke-width: 1.5;" x1="475.5" x2="596.5" y1="553.1406" y2="553.1406"/><line style="stroke: #A80036; stroke-width: 1.5;" x1="475.5" x2="596.5" y1="561.1406" y2="561.1406"/><!--class geom:Pixel_Size_Projected--><rect fill="#FEFECE" filter="url(#f13wxaak087ecx)" height="103.3438" id="geom:Pixel_Size_Projected" style="stroke: #A80036; stroke-width: 1.5;" width="182" x="6" y="705.6406"/><ellipse cx="21" cy="721.6406" fill="#ADD1B2" rx="11" ry="11" style="stroke: #A80036; stroke-width: 1.0;"/><path d="M23.7656,717.5156 Q23.9219,717.2969 24.1094,717.1875 Q24.2969,717.0781 24.5156,717.0781 Q24.8906,717.0781 25.125,717.3359 Q25.3594,717.5938 25.3594,718.2031 L25.3594,719.6563 Q25.3594,720.2656 25.125,720.5313 Q24.8906,720.7969 24.5156,720.7969 Q24.1719,720.7969 23.9688,720.5938 Q23.7656,720.4063 23.6563,719.8906 Q23.6094,719.5313 23.4219,719.3438 Q23.0938,718.9688 22.4844,718.75 Q21.875,718.5313 21.25,718.5313 Q20.4844,718.5313 19.8516,718.8594 Q19.2188,719.1875 18.7266,719.9375 Q18.2344,720.6875 18.2344,721.7188 L18.2344,722.8125 Q18.2344,724.0469 19.125,724.8672 Q20.0156,725.6875 21.6094,725.6875 Q22.5469,725.6875 23.2031,725.4375 Q23.5938,725.2813 24.0156,724.8438 Q24.2813,724.5781 24.4297,724.5 Q24.5781,724.4219 24.7813,724.4219 Q25.1094,724.4219 25.3672,724.6797 Q25.625,724.9375 25.625,725.2813 Q25.625,725.625 25.2813,726.0313 Q24.7813,726.6094 23.9844,726.9375 Q22.9063,727.3906 21.6094,727.3906 Q20.0938,727.3906 18.8906,726.7656 Q17.9063,726.2656 17.2188,725.1953 Q16.5313,724.125 16.5313,722.8438 L16.5313,721.6875 Q16.5313,720.3594 17.1484,719.2109 Q17.7656,718.0625 18.8594,717.4453 Q19.9531,716.8281 21.1875,716.8281 Q21.9219,716.8281 22.5703,716.9922 Q23.2188,717.1563 23.7656,717.5156 Z "/><text fill="#000000" font-family="sans-serif" font-size="12" lengthAdjust="spacingAndGlyphs" textLength="150" x="35" y="726.5508">geom:Pixel_Size_Projected</text><line style="stroke: #A80036; stroke-width: 1.5;" x1="7" x2="187" y1="737.6406" y2="737.6406"/><text fill="#000000" font-family="sans-serif" font-size="11" lengthAdjust="spacingAndGlyphs" textLength="124" x="12" y="753.0596">reference_location: string</text><text fill="#000000" font-family="sans-serif" font-size="11" lengthAdjust="spacingAndGlyphs" textLength="65" x="12" y="766.8955">distance: real</text><text fill="#000000" font-family="sans-serif" font-size="11" lengthAdjust="spacingAndGlyphs" textLength="145" x="12" y="780.7314">horizontal_pixel_footprint: real</text><text fill="#000000" font-family="sans-serif" font-size="11" lengthAdjust="spacingAndGlyphs" textLength="133" x="12" y="794.5674">vertical_pixel_footprint: real</text><line style="stroke: #A80036; stroke-width: 1.5;" x1="7" x2="187" y1="800.9844" y2="800.9844"/><!--class geom:Distances_Specific--><rect fill="#FEFECE" filter="url(#f13wxaak087ecx)" height="89.5078" id="geom:Distances_Specific" style="stroke: #A80036; stroke-width: 1.5;" width="173" x="223.5" y="712.1406"/><ellipse cx="238.5" cy="728.1406" fill="#ADD1B2" rx="11" ry="11" style="stroke: #A80036; stroke-width: 1.0;"/><path d="M241.2656,724.0156 Q241.4219,723.7969 241.6094,723.6875 Q241.7969,723.5781 242.0156,723.5781 Q242.3906,723.5781 242.625,723.8359 Q242.8594,724.0938 242.8594,724.7031 L242.8594,726.1563 Q242.8594,726.7656 242.625,727.0313 Q242.3906,727.2969 242.0156,727.2969 Q241.6719,727.2969 241.4688,727.0938 Q241.2656,726.9063 241.1563,726.3906 Q241.1094,726.0313 240.9219,725.8438 Q240.5938,725.4688 239.9844,725.25 Q239.375,725.0313 238.75,725.0313 Q237.9844,725.0313 237.3516,725.3594 Q236.7188,725.6875 236.2266,726.4375 Q235.7344,727.1875 235.7344,728.2188 L235.7344,729.3125 Q235.7344,730.5469 236.625,731.3672 Q237.5156,732.1875 239.1094,732.1875 Q240.0469,732.1875 240.7031,731.9375 Q241.0938,731.7813 241.5156,731.3438 Q241.7813,731.0781 241.9297,731 Q242.0781,730.9219 242.2813,730.9219 Q242.6094,730.9219 242.8672,731.1797 Q243.125,731.4375 243.125,731.7813 Q243.125,732.125 242.7813,732.5313 Q242.2813,733.1094 241.4844,733.4375 Q240.4063,733.8906 239.1094,733.8906 Q237.5938,733.8906 236.3906,733.2656 Q235.4063,732.7656 234.7188,731.6953 Q234.0313,730.625 234.0313,729.3438 L234.0313,728.1875 Q234.0313,726.8594 234.6484,725.7109 Q235.2656,724.5625 236.3594,723.9453 Q237.4531,723.3281 238.6875,723.3281 Q239.4219,723.3281 240.0703,723.4922 Q240.7188,723.6563 241.2656,724.0156 Z "/><text fill="#000000" font-family="sans-serif" font-size="12" lengthAdjust="spacingAndGlyphs" textLength="141" x="252.5" y="733.0508">geom:Distances_Specific</text><line style="stroke: #A80036; stroke-width: 1.5;" x1="224.5" x2="395.5" y1="744.1406" y2="744.1406"/><text fill="#000000" font-family="sans-serif" font-size="11" lengthAdjust="spacingAndGlyphs" textLength="156" x="229.5" y="759.5596">target_geocentric_distance: real</text><text fill="#000000" font-family="sans-serif" font-size="11" lengthAdjust="spacingAndGlyphs" textLength="160" x="229.5" y="773.3955">target_heliocentric_distance: real</text><text fill="#000000" font-family="sans-serif" font-size="11" lengthAdjust="spacingAndGlyphs" textLength="123" x="229.5" y="787.2314">target_ssb_distance: real</text><line style="stroke: #A80036; stroke-width: 1.5;" x1="224.5" x2="395.5" y1="793.6484" y2="793.6484"/><!--class geom:Distances_Min_Max--><rect fill="#FEFECE" filter="url(#f13wxaak087ecx)" height="131.0156" id="geom:Distances_Min_Max" style="stroke: #A80036; stroke-width: 1.5;" width="222" x="432" y="691.6406"/><ellipse cx="467.25" cy="707.6406" fill="#ADD1B2" rx="11" ry="11" style="stroke: #A80036; stroke-width: 1.0;"/><path d="M470.0156,703.5156 Q470.1719,703.2969 470.3594,703.1875 Q470.5469,703.0781 470.7656,703.0781 Q471.1406,703.0781 471.375,703.3359 Q471.6094,703.5938 471.6094,704.2031 L471.6094,705.6563 Q471.6094,706.2656 471.375,706.5313 Q471.1406,706.7969 470.7656,706.7969 Q470.4219,706.7969 470.2188,706.5938 Q470.0156,706.4063 469.9063,705.8906 Q469.8594,705.5313 469.6719,705.3438 Q469.3438,704.9688 468.7344,704.75 Q468.125,704.5313 467.5,704.5313 Q466.7344,704.5313 466.1016,704.8594 Q465.4688,705.1875 464.9766,705.9375 Q464.4844,706.6875 464.4844,707.7188 L464.4844,708.8125 Q464.4844,710.0469 465.375,710.8672 Q466.2656,711.6875 467.8594,711.6875 Q468.7969,711.6875 469.4531,711.4375 Q469.8438,711.2813 470.2656,710.8438 Q470.5313,710.5781 470.6797,710.5 Q470.8281,710.4219 471.0313,710.4219 Q471.3594,710.4219 471.6172,710.6797 Q471.875,710.9375 471.875,711.2813 Q471.875,711.625 471.5313,712.0313 Q471.0313,712.6094 470.2344,712.9375 Q469.1563,713.3906 467.8594,713.3906 Q466.3438,713.3906 465.1406,712.7656 Q464.1563,712.2656 463.4688,711.1953 Q462.7813,710.125 462.7813,708.8438 L462.7813,707.6875 Q462.7813,706.3594 463.3984,705.2109 Q464.0156,704.0625 465.1094,703.4453 Q466.2031,702.8281 467.4375,702.8281 Q468.1719,702.8281 468.8203,702.9922 Q469.4688,703.1563 470.0156,703.5156 Z "/><text fill="#000000" font-family="sans-serif" font-size="12" lengthAdjust="spacingAndGlyphs" textLength="145" x="485.75" y="712.5508">geom:Distances_Min_Max</text><line style="stroke: #A80036; stroke-width: 1.5;" x1="433" x2="653" y1="723.6406" y2="723.6406"/><text fill="#000000" font-family="sans-serif" font-size="11" lengthAdjust="spacingAndGlyphs" textLength="202" x="438" y="739.0596">minimum_target_geocentric_distance: real</text><text fill="#000000" font-family="sans-serif" font-size="11" lengthAdjust="spacingAndGlyphs" textLength="206" x="438" y="752.8955">maximum_target_geocentric_distance: real</text><text fill="#000000" font-family="sans-serif" font-size="11" lengthAdjust="spacingAndGlyphs" textLength="206" x="438" y="766.7314">minimum_target_heliocentric_distance: real</text><text fill="#000000" font-family="sans-serif" font-size="11" lengthAdjust="spacingAndGlyphs" textLength="210" x="438" y="780.5674">maximum_target_heliocentric_distance: real</text><text fill="#000000" font-family="sans-serif" font-size="11" lengthAdjust="spacingAndGlyphs" textLength="169" x="438" y="794.4033">minimum_target_ssb_distance: real</text><text fill="#000000" font-family="sans-serif" font-size="11" lengthAdjust="spacingAndGlyphs" textLength="173" x="438" y="808.2393">maximum_target_ssb_distance: real</text><line style="stroke: #A80036; stroke-width: 1.5;" x1="433" x2="653" y1="814.6563" y2="814.6563"/><!--class geom:Distances_Start_Stop--><rect fill="#FEFECE" filter="url(#f13wxaak087ecx)" height="131.0156" id="geom:Distances_Start_Stop" style="stroke: #A80036; stroke-width: 1.5;" width="200" x="689" y="691.6406"/><ellipse cx="709.85" cy="707.6406" fill="#ADD1B2" rx="11" ry="11" style="stroke: #A80036; stroke-width: 1.0;"/><path d="M712.6156,703.5156 Q712.7719,703.2969 712.9594,703.1875 Q713.1469,703.0781 713.3656,703.0781 Q713.7406,703.0781 713.975,703.3359 Q714.2094,703.5938 714.2094,704.2031 L714.2094,705.6563 Q714.2094,706.2656 713.975,706.5313 Q713.7406,706.7969 713.3656,706.7969 Q713.0219,706.7969 712.8188,706.5938 Q712.6156,706.4063 712.5063,705.8906 Q712.4594,705.5313 712.2719,705.3438 Q711.9438,704.9688 711.3344,704.75 Q710.725,704.5313 710.1,704.5313 Q709.3344,704.5313 708.7016,704.8594 Q708.0688,705.1875 707.5766,705.9375 Q707.0844,706.6875 707.0844,707.7188 L707.0844,708.8125 Q707.0844,710.0469 707.975,710.8672 Q708.8656,711.6875 710.4594,711.6875 Q711.3969,711.6875 712.0531,711.4375 Q712.4438,711.2813 712.8656,710.8438 Q713.1313,710.5781 713.2797,710.5 Q713.4281,710.4219 713.6313,710.4219 Q713.9594,710.4219 714.2172,710.6797 Q714.475,710.9375 714.475,711.2813 Q714.475,711.625 714.1313,712.0313 Q713.6313,712.6094 712.8344,712.9375 Q711.7563,713.3906 710.4594,713.3906 Q708.9438,713.3906 707.7406,712.7656 Q706.7563,712.2656 706.0688,711.1953 Q705.3813,710.125 705.3813,708.8438 L705.3813,707.6875 Q705.3813,706.3594 705.9984,705.2109 Q706.6156,704.0625 707.7094,703.4453 Q708.8031,702.8281 710.0375,702.8281 Q710.7719,702.8281 711.4203,702.9922 Q712.0688,703.1563 712.6156,703.5156 Z "/><text fill="#000000" font-family="sans-serif" font-size="12" lengthAdjust="spacingAndGlyphs" textLength="155" x="725.15" y="712.5508">geom:Distances_Start_Stop</text><line style="stroke: #A80036; stroke-width: 1.5;" x1="690" x2="888" y1="723.6406" y2="723.6406"/><text fill="#000000" font-family="sans-serif" font-size="11" lengthAdjust="spacingAndGlyphs" textLength="184" x="695" y="739.0596">start_target_geocentric_distance: real</text><text fill="#000000" font-family="sans-serif" font-size="11" lengthAdjust="spacingAndGlyphs" textLength="183" x="695" y="752.8955">stop_target_geocentric_distance: real</text><text fill="#000000" font-family="sans-serif" font-size="11" lengthAdjust="spacingAndGlyphs" textLength="188" x="695" y="766.7314">start_target_heliocentric_distance: real</text><text fill="#000000" font-family="sans-serif" font-size="11" lengthAdjust="spacingAndGlyphs" textLength="187" x="695" y="780.5674">stop_target_heliocentric_distance: real</text><text fill="#000000" font-family="sans-serif" font-size="11" lengthAdjust="spacingAndGlyphs" textLength="151" x="695" y="794.4033">start_target_ssb_distance: real</text><text fill="#000000" font-family="sans-serif" font-size="11" lengthAdjust="spacingAndGlyphs" textLength="150" x="695" y="808.2393">stop_target_ssb_distance: real</text><line style="stroke: #A80036; stroke-width: 1.5;" x1="690" x2="888" y1="814.6563" y2="814.6563"/><!--link Groundbased_Parameters to Airmass--><path d="M612,249.2026 C612,263.8936 612,280.4136 612,295.5966 " fill="none" id="Groundbased_Parameters-Airmass" style="stroke: #A80036; stroke-width: 1.0;"/><polygon fill="#A80036" points="612,235.7816,608,241.7816,612,247.7816,616,241.7816,612,235.7816" style="stroke: #A80036; stroke-width: 1.0;"/><!--link Groundbased_Parameters to Geometry_Groundbased--><path d="M542.254,241.9346 C493.117,267.5036 428.793,300.9756 386.476,322.9966 " fill="none" id="Groundbased_Parameters-Geometry_Groundbased" style="stroke: #A80036; stroke-width: 1.0;"/><polygon fill="#A80036" points="554.078,235.7816,546.9091,235.0027,543.4328,241.3205,550.6017,242.0995,554.078,235.7816" style="stroke: #A80036; stroke-width: 1.0;"/><!--link Geometry_Groundbased to geom:Pixel_Dimensions--><path d="M303.711,379.6726 C264.088,412.3036 201.884,463.5296 157.43,500.1396 " fill="none" id="Geometry_Groundbased-geom:Pixel_Dimensions" style="stroke: #A80036; stroke-width: 1.0;"/><polygon fill="#A80036" points="313.764,371.3936,306.5896,372.12,304.5006,379.0219,311.6751,378.2955,313.764,371.3936" style="stroke: #A80036; stroke-width: 1.0;"/><!--link geom:Pixel_Dimensions to geom:Pixel_Size_Projected--><path d="M102.0932,603.3456 C101.0286,635.2836 99.7139,674.7226 98.687,705.5316 " fill="none" id="geom:Pixel_Dimensions-geom:Pixel_Size_Projected" style="stroke: #A80036; stroke-width: 1.0;"/><polygon fill="#A80036" points="102.5326,590.1636,98.335,596.0271,102.133,602.157,106.3306,596.2935,102.5326,590.1636" style="stroke: #A80036; stroke-width: 1.0;"/><!--link Geometry_Groundbased to geom:Derived_Geometry--><path d="M342,384.4116 C342,405.2446 342,432.3546 342,458.3076 " fill="none" id="Geometry_Groundbased-geom:Derived_Geometry" style="stroke: #A80036; stroke-width: 1.0;"/><polygon fill="#A80036" points="342,371.3936,338,377.3936,342,383.3936,346,377.3936,342,371.3936" style="stroke: #A80036; stroke-width: 1.0;"/><!--link Geometry_Groundbased to geom:Distances--><path d="M374.392,380.8666 C413.593,420.4716 478.611,486.1606 513.014,520.9176 " fill="none" id="Geometry_Groundbased-geom:Distances" style="stroke: #A80036; stroke-width: 1.0;"/><polygon fill="#A80036" points="365.016,371.3936,366.3945,378.4717,373.4583,379.9217,372.0798,372.8435,365.016,371.3936" style="stroke: #A80036; stroke-width: 1.0;"/><!--link geom:Distances to geom:Distances_Specific--><path d="M501.242,578.4376 C462.791,614.1666 400.599,671.9556 357.629,711.8836 " fill="none" id="geom:Distances-geom:Distances_Specific" style="stroke: #A80036; stroke-width: 1.0;"/><polygon fill="#A80036" points="510.951,569.4166,503.8328,570.5705,502.1602,577.585,509.2784,576.4311,510.951,569.4166" style="stroke: #A80036; stroke-width: 1.0;"/><!--link geom:Distances to geom:Distances_Min_Max--><path d="M537.215,582.5786 C538.214,612.5506 539.654,655.7666 540.848,691.5766 " fill="none" id="geom:Distances-geom:Distances_Min_Max" style="stroke: #A80036; stroke-width: 1.0;"/><polygon fill="#A80036" points="536.776,569.4166,532.978,575.5465,537.1756,581.41,540.9736,575.2801,536.776,569.4166" style="stroke: #A80036; stroke-width: 1.0;"/><!--link geom:Distances to geom:Distances_Start_Stop--><path d="M574.162,577.8166 C610.328,607.8356 665.731,653.8226 711.216,691.5766 " fill="none" id="geom:Distances-geom:Distances_Start_Stop" style="stroke: #A80036; stroke-width: 1.0;"/><polygon fill="#A80036" points="564.042,569.4166,566.104,576.3266,573.2756,577.0809,571.2135,570.1709,564.042,569.4166" style="stroke: #A80036; stroke-width: 1.0;"/><!--
@startuml

title Groundbased Dictionary Class Diagram

class Groundbased_Parameters {
    apparentVisualMagnitude: real
}
note top 
    This class is intended to provide additional metadata for groundbased observations.
    Much of the information is geometry information, but in a ground-based context.
    ....
    Typically, this would go into the geometry dictionary,
    but the geometry dictionary is currently focused solely on missions.
end note

class Airmass {
    airmass: real
    measurementTime: date
    measurementX: integer
    measurementY: integer
}

class Geometry_Groundbased 
note top 
    We should not depend directly on the geometry classes.
    We will either have to clone the geometry classes or define our own versions.
end note

class geom:Pixel_Dimensions {
    pixel_field_of_view_method: string
    horizontal_pixel_field_of_view: real
    vertical_pixel_field_of_view: real
}

class geom:Derived_Geometry {
    incidence_angle: real
    emission_angle: real
    phase_angle: real
    instrument_azimuth: real
    instrument_elevation: real
    solar_azimuth: real
    solar_elevation: real
    start_azimuth: real
    stop_azimuth: real
}

class geom:Distances

class geom:Pixel_Size_Projected {
    reference_location: string
    distance: real
    horizontal_pixel_footprint: real
    vertical_pixel_footprint: real
}

class geom:Distances_Specific {
    target_geocentric_distance: real
    target_heliocentric_distance: real
    target_ssb_distance: real
}

class geom:Distances_Min_Max {
    minimum_target_geocentric_distance: real
    maximum_target_geocentric_distance: real
    minimum_target_heliocentric_distance: real
    maximum_target_heliocentric_distance: real
    minimum_target_ssb_distance: real
    maximum_target_ssb_distance: real
}

class geom:Distances_Start_Stop {
    start_target_geocentric_distance: real
    stop_target_geocentric_distance: real
    start_target_heliocentric_distance: real
    stop_target_heliocentric_distance: real
    start_target_ssb_distance: real
    stop_target_ssb_distance: real
}

Groundbased_Parameters *- - Airmass
Groundbased_Parameters *- - Geometry_Groundbased
Geometry_Groundbased *- - "geom:Pixel_Dimensions"
"geom:Pixel_Dimensions" *- - "geom:Pixel_Size_Projected"
Geometry_Groundbased *- - "geom:Derived_Geometry"
Geometry_Groundbased *- - "geom:Distances"
"geom:Distances" *- - "geom:Distances_Specific"
"geom:Distances" *- - "geom:Distances_Min_Max"
"geom:Distances" *- - "geom:Distances_Start_Stop"

@enduml

PlantUML version 1.2018.10(Sat Aug 25 10:02:59 MST 2018)
(GPL source distribution)
Java Runtime: Java(TM) SE Runtime Environment
JVM: Java HotSpot(TM) 64-Bit Server VM
Java Version: 1.8.0_181-b13
Operating System: Windows 10
OS Version: 10.0
Default Encoding: UTF-8
Language: en
Country: US
--></g></svg>